<svg width="26" height="26" viewBox="0 0 26 26" fill="none" xmlns="http://www.w3.org/2000/svg">
<path d="M18.5464 2.57587C18.3588 2.23232 18.0979 1.93432 17.7821 1.70309C17.4664 1.47185 17.1035 1.31305 16.7194 1.23801L16.1358 1.2576C15.9791 0.678927 12.0473 0.614553 11.4589 0.702018C10.8093 0.815209 10.1717 0.988554 9.55422 1.21981C9.40233 1.28056 9.26672 1.37592 9.15818 1.4983H9.07911C8.59887 1.78106 8.16056 2.12964 7.77693 2.53389C5.42768 5.05284 3.94113 8.25414 3.53254 11.6742C3.12394 15.0944 3.8145 18.5558 5.50423 21.5572C6.04887 22.5188 6.77977 23.362 7.65419 24.0377C8.52861 24.7134 9.52899 25.208 10.5968 25.4925C11.4319 25.7256 12.2937 25.8491 13.1606 25.8598C14.017 25.8468 14.8681 25.7233 15.6929 25.4925C16.7604 25.2078 17.7605 24.7131 18.6347 24.0374C19.5088 23.3617 20.2395 22.5186 20.7841 21.5572C22.471 18.5646 23.1634 15.1133 22.7612 11.7016C22.359 8.28983 20.883 5.09416 18.5464 2.57587ZM18.8738 20.5384C18.4677 21.244 17.9254 21.8617 17.2784 22.3558C16.6314 22.8498 15.8927 23.2104 15.1051 23.4164C14.4729 23.5937 13.8206 23.6894 13.1641 23.7012C12.4959 23.6924 11.8316 23.5966 11.1881 23.4164C10.4002 23.2105 9.66109 22.8501 9.01374 22.356C8.3664 21.8619 7.82372 21.2441 7.41727 20.5384C5.90935 17.9494 5.28247 14.9409 5.63085 11.9651C5.97924 8.98928 7.28406 6.20692 9.3492 4.03619C9.70442 3.68775 10.1113 3.39626 10.5555 3.17204C10.9584 3.03089 11.3722 2.92278 11.7926 2.84877C12.0061 2.81518 12.6442 2.67803 13.3677 2.48911C13.2278 2.60176 13.0829 2.69343 12.95 2.82288C9.91808 5.73232 9.06792 12.5105 9.13859 15.3395C9.14498 15.6226 9.26188 15.8921 9.46428 16.0901C9.66669 16.2882 9.93855 16.3993 10.2218 16.3996H10.2476C10.535 16.3924 10.8077 16.2717 11.0061 16.0638C11.2046 15.8559 11.3125 15.5779 11.3063 15.2905C11.2441 12.6001 12.1012 6.64196 14.4509 4.38885C14.9496 3.87324 15.6288 3.57123 16.3457 3.54639C16.5575 3.6931 16.7566 3.85716 16.9412 4.03689C16.9575 4.05597 16.9748 4.07418 16.993 4.09147C19.0407 6.26284 20.3307 9.03864 20.6701 12.0039C21.0095 14.9692 20.3801 17.9647 18.8759 20.5426" fill="white"/>
</svg>
