<svg width="17" height="36" viewBox="0 0 17 36" fill="none" xmlns="http://www.w3.org/2000/svg">
<path d="M12.7395 15.9171C12.4101 15.5715 12.035 15.2727 11.6245 15.0291L11.5725 15.0011C11.3622 14.8738 11.1445 14.7593 10.9205 14.6581C10.6885 13.2661 10.1045 9.07807 10.9775 6.41607C11.07 6.01565 11.2477 5.63989 11.4987 5.31441C11.7496 4.98894 12.0677 4.72141 12.4315 4.53007C13.2049 4.28087 14.0434 4.32864 14.7835 4.66407C14.9587 4.75002 15.1572 4.77665 15.3489 4.73997C15.5406 4.70328 15.7152 4.60526 15.8463 4.46069C15.9775 4.31611 16.0581 4.13282 16.0759 3.93844C16.0938 3.74406 16.048 3.54914 15.9455 3.38307C15.0955 2.01007 12.6175 -0.371932 9.29345 0.495068C3.93545 1.89507 4.39345 9.32607 4.87945 15.0291C4.48122 15.2633 4.11771 15.5521 3.79945 15.8871C1.84897 17.9778 0.614777 20.6352 0.275687 23.4743C-0.0634025 26.3134 0.510221 29.1868 1.91345 31.6781C2.36558 32.4758 2.97217 33.1754 3.69777 33.736C4.42338 34.2966 5.25344 34.7069 6.13945 34.9431C6.83279 35.1349 7.54811 35.2357 8.26745 35.2431C8.97743 35.2337 9.68325 35.1329 10.3675 34.9431C11.2532 34.7066 12.0829 34.296 12.8082 33.7352C13.5334 33.1744 14.1397 32.4748 14.5915 31.6771C15.9939 29.1932 16.5704 26.3278 16.2375 23.4948C15.9046 20.6619 14.6796 18.0081 12.7395 15.9171ZM13.0115 30.8231C12.6739 31.4085 12.2234 31.9209 11.686 32.3307C11.1487 32.7405 10.5353 33.0394 9.88145 33.2101C9.35542 33.3575 8.81266 33.4368 8.26645 33.4461C7.71186 33.4389 7.16057 33.3595 6.62645 33.2101C5.97244 33.0392 5.35893 32.7399 4.8216 32.3298C4.28426 31.9197 3.83381 31.4068 3.49645 30.8211C2.2442 28.6716 1.72384 26.1736 2.01365 23.7029C2.30346 21.2322 3.38777 18.9224 5.10345 17.1211C5.42465 16.7987 5.80003 16.5354 6.21245 16.3431C6.58551 16.207 6.9696 16.1033 7.36045 16.0331C7.47916 16.0171 7.59347 15.9775 7.6967 15.9167C7.79993 15.856 7.88998 15.7752 7.96159 15.6792C8.03321 15.5832 8.08493 15.4738 8.11373 15.3576C8.14254 15.2413 8.14785 15.1205 8.12934 15.0021C8.11084 14.8838 8.0689 14.7703 8.00598 14.6684C7.94306 14.5665 7.86042 14.4781 7.76292 14.4085C7.66542 14.339 7.55501 14.2896 7.43816 14.2632C7.32131 14.2368 7.20038 14.2341 7.08245 14.2551C6.92945 14.2791 6.77645 14.3111 6.62745 14.3461C6.21845 9.37107 5.96045 3.22907 9.74945 2.23607C10.2265 2.1076 10.7243 2.0753 11.2139 2.14105C11.7036 2.2068 12.1752 2.3693 12.6015 2.61907C12.3062 2.66959 12.0177 2.75346 11.7415 2.86907C11.1341 3.15363 10.5972 3.56884 10.169 4.08503C9.74079 4.60122 9.43192 5.20564 9.26445 5.85507C8.16445 9.20607 9.01245 14.2691 9.20245 15.3001C9.20245 15.3141 9.20845 15.3281 9.20945 15.3421C8.79971 15.5432 8.42278 15.8051 8.09145 16.1191C5.57445 18.5321 4.87345 24.1591 4.92845 26.5101C4.93368 26.7453 5.0308 26.9691 5.19902 27.1336C5.36724 27.2981 5.59318 27.3901 5.82845 27.3901H5.84945C6.08799 27.3846 6.31458 27.2846 6.47941 27.112C6.64424 26.9395 6.73382 26.7086 6.72845 26.4701C6.67645 24.2371 7.38845 19.2931 9.33845 17.4231C9.75214 16.9951 10.3156 16.7442 10.9105 16.7231C11.0861 16.8448 11.2514 16.9809 11.4045 17.1301C11.418 17.1458 11.4323 17.1608 11.4475 17.1751C13.1468 18.977 14.2174 21.2804 14.4991 23.7412C14.7808 26.2019 14.2586 28.6877 13.0105 30.8271" fill="white"/>
</svg>
