<svg width="37" height="37" viewBox="0 0 37 37" fill="none" xmlns="http://www.w3.org/2000/svg">
<path d="M21.5484 21.6428C21.4767 21.573 21.3919 21.518 21.2989 21.4809C21.2059 21.4438 21.1065 21.4255 21.0064 21.4268C20.9062 21.4285 20.8074 21.4501 20.7157 21.4904C20.624 21.5308 20.5413 21.5891 20.4724 21.6618C20.3088 21.8822 20.1759 22.1237 20.0774 22.3798C19.7679 22.207 19.4389 22.0717 19.0974 21.9768C19.9913 19.9058 20.0486 17.5692 19.2574 15.4568C18.9652 14.7768 18.7082 14.0822 18.4874 13.3758C19.1786 13.107 19.7696 12.6309 20.1794 12.0128C23.2064 7.54584 19.5714 2.55784 17.2254 0.541835C17.0743 0.411979 16.878 0.347276 16.6793 0.361895C16.4806 0.376515 16.2958 0.469264 16.1654 0.619835C16.0174 0.794835 12.5434 4.85283 12.9284 8.81283C13.0058 9.61837 13.2521 10.3986 13.6511 11.1026C14.0502 11.8066 14.593 12.4186 15.2444 12.8988C15.7441 13.2866 16.3452 13.5217 16.9754 13.5758C17.2291 14.4202 17.5313 15.2492 17.8804 16.0588C18.8354 18.2538 18.0124 21.2348 17.4444 21.8268C16.9656 21.8736 16.5023 22.0219 16.0854 22.2618C16.0214 22.0788 15.9784 21.9588 15.9674 21.9288C15.9252 21.8097 15.8536 21.7031 15.7592 21.6189C15.6648 21.5347 15.5508 21.4757 15.4276 21.4473C15.3044 21.4189 15.176 21.422 15.0543 21.4564C14.9326 21.4907 14.8216 21.5552 14.7314 21.6438C13.2495 23.2311 12.3116 25.2492 12.0538 27.4054C11.7959 29.5616 12.2315 31.7439 13.2974 33.6358C13.643 34.245 14.1064 34.7792 14.6606 35.2074C15.2148 35.6356 15.8488 35.9492 16.5254 36.1298C17.0549 36.2782 17.6016 36.3562 18.1514 36.3618C18.6935 36.3541 19.2324 36.2761 19.7544 36.1298C20.431 35.9491 21.0649 35.6355 21.6191 35.2073C22.1733 34.7791 22.6367 34.2449 22.9824 33.6358C24.0476 31.7439 24.4826 29.5619 24.2244 27.4061C23.9662 25.2503 23.0282 23.2328 21.5464 21.6458M14.4214 8.67484C14.2344 6.75484 15.2234 4.70384 16.0884 3.30984C16.6426 5.59271 16.9272 7.93268 16.9364 10.2818C16.9385 10.4802 17.0188 10.6696 17.1598 10.8091C17.3008 10.9486 17.4911 11.0268 17.6894 11.0268H17.7004C17.7994 11.0258 17.8972 11.0052 17.9882 10.9664C18.0792 10.9275 18.1617 10.8711 18.2309 10.8003C18.3001 10.7295 18.3546 10.6458 18.3915 10.5539C18.4283 10.462 18.4466 10.3638 18.4454 10.2648C18.4374 7.86348 18.1566 5.4708 17.6084 3.13284C19.0864 4.93584 20.9784 8.15584 18.9374 11.1768C18.764 11.4512 18.5258 11.6789 18.2439 11.8398C17.962 12.0007 17.6449 12.09 17.3204 12.0998H17.2924C16.8857 12.1015 16.4904 11.9658 16.1704 11.7148C15.6798 11.361 15.2705 10.9065 14.9697 10.3817C14.6689 9.85694 14.4837 9.27398 14.4264 8.67183M17.9324 23.3018C18.4992 23.3095 19.051 23.4857 19.5174 23.8078C19.0454 25.1148 18.5124 26.7968 18.0854 28.2718C17.5834 26.6548 17.0164 24.9768 16.5984 23.7458C16.9691 23.4297 17.4482 23.2702 17.9344 23.3008M21.6574 32.9148C21.4076 33.3477 21.0742 33.7264 20.6766 34.0291C20.279 34.3318 19.8251 34.5523 19.3414 34.6778C18.953 34.7881 18.5521 34.8479 18.1484 34.8558C17.7367 34.8499 17.3276 34.7901 16.9314 34.6778C16.4486 34.5517 15.9957 34.3309 15.599 34.0283C15.2022 33.7256 14.8696 33.3471 14.6204 32.9148C13.789 31.5064 13.3818 29.8879 13.4476 28.2536C13.5134 26.6194 14.0494 25.0389 14.9914 23.7018C15.6294 25.5488 16.7944 29.0028 17.3964 31.2828C17.4399 31.4463 17.5372 31.5904 17.6725 31.6918C17.8079 31.7932 17.9735 31.8461 18.1426 31.842C18.3117 31.8378 18.4745 31.7769 18.6047 31.6689C18.7349 31.5609 18.825 31.4122 18.8604 31.2468C19.4906 28.6459 20.2709 26.0836 21.1974 23.5728C22.1788 24.9146 22.7454 26.5146 22.8271 28.1749C22.9089 29.8353 22.5022 31.4832 21.6574 32.9148Z" fill="white"/>
</svg>
