<svg width="20" height="37" viewBox="0 0 20 37" fill="none" xmlns="http://www.w3.org/2000/svg">
<path d="M19.2222 0.894397C19.1881 0.751663 19.1051 0.625351 18.9877 0.537328C18.8703 0.449304 18.7258 0.40511 18.5792 0.412397C18.4172 0.421397 14.5712 0.674397 12.2172 3.5594C10.7512 5.3574 10.2052 7.7494 10.5982 10.6734C10.2893 11.53 10.1323 12.4339 10.1342 13.3444C6.79219 8.9614 1.29619 10.5684 1.23019 10.5914C1.07984 10.6377 0.952474 10.739 0.873509 10.875C0.794545 11.0111 0.769791 11.1719 0.804188 11.3254C0.846188 11.5184 1.89519 16.0534 5.26719 17.6924C6.0568 18.0763 6.92419 18.2734 7.80219 18.2684C8.83413 18.2457 9.85202 18.0243 10.8002 17.6164C11.0067 18.2806 11.2497 18.933 11.5282 19.5704C12.3212 21.3894 11.6372 23.8634 11.1672 24.3534C10.7698 24.3924 10.3853 24.5155 10.0392 24.7144L9.94219 24.4384C9.90703 24.3393 9.84744 24.2506 9.76891 24.1807C9.69039 24.1107 9.59548 24.0617 9.49298 24.0382C9.39048 24.0146 9.2837 24.0173 9.18252 24.046C9.08135 24.0748 8.98905 24.1285 8.91419 24.2024C7.6856 25.519 6.90802 27.1924 6.69407 28.9804C6.48012 30.7684 6.84091 32.5781 7.72419 34.1474C8.01057 34.6528 8.3948 35.0961 8.85444 35.4513C9.31407 35.8066 9.8399 36.0667 10.4012 36.2164C10.8404 36.34 11.294 36.4052 11.7502 36.4104C12.2004 36.4037 12.6478 36.3385 13.0812 36.2164C13.6429 36.0664 14.1691 35.806 14.629 35.4504C15.089 35.0948 15.4735 34.6512 15.7602 34.1454C16.6437 32.576 17.0046 30.7661 16.7907 28.9779C16.5767 27.1897 15.799 25.516 14.5702 24.1994C14.5107 24.1407 14.44 24.0946 14.3624 24.0637C14.2847 24.0329 14.2017 24.0179 14.1182 24.0196C14.0346 24.0214 13.9523 24.0399 13.876 24.074C13.7998 24.1082 13.7312 24.1573 13.6742 24.2184C13.5389 24.4014 13.4289 24.6019 13.3472 24.8144C13.0915 24.6721 12.82 24.5603 12.5382 24.4814C13.2799 22.764 13.3275 20.8261 12.6712 19.0744C10.8792 14.9544 11.3952 12.2894 11.6712 11.3864C14.4452 11.3394 16.5222 10.4764 17.8592 8.8094C20.3322 5.7314 19.2692 1.0894 19.2222 0.894397ZM14.6592 33.5514C14.4523 33.9103 14.1762 34.2246 13.8467 34.4757C13.5172 34.7269 13.1411 34.91 12.7402 35.0144C12.4176 35.1058 12.0845 35.1549 11.7492 35.1604C11.4075 35.1561 11.0679 35.1067 10.7392 35.0134C10.3385 34.9094 9.96256 34.7266 9.63326 34.4758C9.30395 34.2249 9.0279 33.911 8.82119 33.5524C8.13147 32.3844 7.79339 31.0423 7.84749 29.6869C7.90159 28.3316 8.34557 27.0207 9.12619 25.9114C9.65719 27.4424 10.6212 30.3074 11.1212 32.1974C11.1594 32.3317 11.2404 32.4499 11.352 32.5338C11.4636 32.6178 11.5996 32.6629 11.7392 32.6624C11.8797 32.659 12.015 32.6085 12.1233 32.5189C12.2316 32.4293 12.3066 32.3058 12.3362 32.1684C12.8608 30.0107 13.5099 27.8851 14.2802 25.8024C15.0931 26.9154 15.5621 28.2421 15.6295 29.6186C15.6968 30.9952 15.3595 32.3614 14.6592 33.5484M11.6972 29.6984C11.2802 28.3584 10.8122 26.9634 10.4632 25.9454C10.7697 25.6837 11.1658 25.5511 11.5682 25.5754C12.0388 25.5815 12.497 25.7277 12.8842 25.9954C12.4932 27.0804 12.0502 28.4754 11.6972 29.6984ZM5.81919 16.5714C3.64419 15.5164 2.57519 12.8454 2.19319 11.6444C3.83619 11.3414 8.38719 11.0454 10.3972 16.4404C9.6891 16.7927 8.91278 16.9866 8.12219 17.0085C7.3316 17.0304 6.54572 16.8799 5.81919 16.5674M16.8852 8.0254C15.8182 9.3564 14.1052 10.0624 11.7922 10.1294C11.5402 7.7384 12.0062 5.7984 13.1812 4.3544C14.4643 2.92739 16.2084 1.99711 18.1082 1.7264C18.2912 2.9554 18.5292 5.9784 16.8862 8.0264" fill="white"/>
</svg>
