<svg width="26" height="25" viewBox="0 0 26 25" fill="none" xmlns="http://www.w3.org/2000/svg">
<path d="M16.8289 15.2334H17.1098V15.1458C17.1098 14.708 17.2315 14.2978 17.4453 13.9567C17.4411 13.9521 17.4369 13.9475 17.4327 13.9429C16.9756 13.459 16.4347 13.1272 15.8644 12.8829L14.0905 12.3299C13.7383 12.1409 13.298 12.3483 13.1805 12.7723L11.2432 18.0724L10.958 15.1274C11.2599 15.0721 11.4948 14.7725 11.4948 14.4222V13.7724C11.4948 13.3668 11.2096 13.0488 10.8364 13.0488H9.57418C9.20094 13.0488 8.89901 13.3668 8.89901 13.7724V14.4222C8.89901 14.7725 9.15063 15.0721 9.45675 15.1274L9.15063 18.0355L7.2468 12.7539C7.12937 12.3299 6.70583 12.1225 6.33679 12.3114L4.5336 12.8829C3.95908 13.1272 3.41814 13.459 2.98201 13.9429C2.2901 14.6803 1.833 15.662 1.6988 16.722L0.029805 23.4462C-0.104393 23.9486 0.231085 24.4279 0.704942 24.4279H2.88135C3.18329 24.4279 3.45165 24.2067 3.55649 23.8749L4.81873 19.2569C4.85229 19.0725 5.10388 19.091 5.12067 19.2753L5.30936 23.6859C5.32614 24.0961 5.64485 24.4279 6.01805 24.4279H14.3798C14.4386 24.4279 14.4973 24.4187 14.556 24.4003C14.5434 24.2989 14.5392 24.2021 14.5392 24.1007V17.7544C14.5392 16.3625 15.5666 15.2334 16.8289 15.2334Z" fill="white"/>
<path d="M10.2028 11.2112C11.9226 11.2112 13.4063 9.6175 14.1313 7.59781C14.4518 6.74531 14.6203 5.80015 14.6203 4.8737C14.6203 1.77904 12.6476 0 10.2028 0C7.77478 0 5.78516 1.77904 5.78516 4.8737C5.78516 5.80015 5.97064 6.74531 6.29101 7.59781C7.01603 9.6175 8.49981 11.2112 10.2028 11.2112Z" fill="white"/>
<path d="M25.1808 16.848H23.4295V15.1462C23.4295 14.8609 23.2201 14.6309 22.9606 14.6309H19.048C18.7885 14.6309 18.5791 14.8609 18.5791 15.1462V16.848H16.8278C16.3742 16.848 16.0078 17.2507 16.0078 17.7516V19.0795H26.0008V17.7516C26.0008 17.2507 25.6344 16.848 25.1808 16.848ZM22.4939 16.848H19.5147V15.6591H22.4939V16.848Z" fill="white"/>
<path d="M24.2212 20.7121C24.2212 20.9542 24.0445 21.1483 23.8264 21.1483H23.6847C23.4666 21.1483 23.2899 20.9542 23.2899 20.7121V20.2471H18.7187V20.7121C18.7187 20.9542 18.5421 21.1483 18.324 21.1483H18.1822C17.9641 21.1483 17.7875 20.9542 17.7875 20.7121V20.2471H16.0078L16.0078 24.0992C16.0078 24.5977 16.3742 25.0004 16.8278 25.0004H25.1808C25.6344 25.0004 26.0008 24.5977 26.0008 24.0992L26.0008 20.2471H24.2212V20.7121Z" fill="white"/>
</svg>
