<svg width="25" height="25" viewBox="0 0 25 25" fill="none" xmlns="http://www.w3.org/2000/svg">
<path d="M5.81506 4.68582C5.81506 5.59525 5.00731 6.33251 4.01101 6.33251C3.01471 6.33251 2.20703 5.59525 2.20703 4.68582C2.20703 3.77639 3.01471 3.03906 4.01101 3.03906C5.00731 3.03906 5.81506 3.77639 5.81506 4.68582Z" fill="white"/>
<path opacity="0.12" d="M4.01101 3.03906V6.33251C3.01471 6.33251 2.20703 5.59525 2.20703 4.68582C2.20703 3.77639 3.01471 3.03906 4.01101 3.03906Z" fill="white"/>
<path d="M8.02223 8.32166V13.5154C8.02223 13.8329 7.74522 14.0967 7.39764 14.1009C7.04548 14.1051 6.75591 13.8435 6.75591 13.523V8.93539C6.75591 8.77579 6.61415 8.64646 6.43929 8.64646C6.26444 8.64646 6.12276 8.77579 6.12276 8.93539V21.1414C6.12276 21.5939 5.72088 21.9607 5.22525 21.9607C4.97742 21.9607 4.75294 21.869 4.59056 21.7207C4.42819 21.5725 4.32773 21.3677 4.32773 21.1414V15.1095C4.32773 14.9499 4.18596 14.8206 4.01111 14.8206C3.92364 14.8206 3.84458 14.8529 3.78722 14.9051C3.72995 14.9575 3.69449 15.0297 3.69449 15.1095V21.1414C3.69449 21.5939 3.2927 21.9607 2.79698 21.9607H2.79689C2.30126 21.9607 1.89938 21.5939 1.89938 21.1414V8.93539C1.89938 8.77579 1.7577 8.64646 1.58285 8.64646C1.40799 8.64646 1.26631 8.77579 1.26631 8.93539V13.523C1.26631 13.8435 0.976834 14.1051 0.624669 14.1009C0.276988 14.0968 0 13.8328 0 13.5154V8.32166C0 7.16576 0.633156 6.58789 1.89938 6.58789H6.12279C7.38907 6.58788 8.02223 7.16575 8.02223 8.32166Z" fill="white"/>
<path opacity="0.12" d="M4.01111 6.58789V14.8206C3.92364 14.8206 3.84458 14.8528 3.78722 14.9051C3.72995 14.9575 3.69449 15.0297 3.69449 15.1095V21.1414C3.69449 21.5939 3.2927 21.9607 2.79698 21.9607H2.7969C2.30126 21.9607 1.89938 21.5939 1.89938 21.1414V8.9354C1.89938 8.7758 1.7577 8.64647 1.58285 8.64647C1.40799 8.64647 1.26631 8.7758 1.26631 8.9354V13.523C1.26631 13.8435 0.976834 14.1051 0.624669 14.1009C0.276988 14.0968 0 13.8329 0 13.5154V8.32168C0 7.16578 0.633156 6.5879 1.89938 6.5879L4.01111 6.58789Z" fill="white"/>
<path d="M22.7955 4.68582C22.7955 5.59525 21.9878 6.33251 20.9915 6.33251C19.9952 6.33251 19.1875 5.59525 19.1875 4.68582C19.1875 3.77639 19.9952 3.03906 20.9915 3.03906C21.9878 3.03906 22.7955 3.77639 22.7955 4.68582Z" fill="white"/>
<path opacity="0.12" d="M20.9915 3.03906V6.33251C19.9952 6.33251 19.1875 5.59525 19.1875 4.68582C19.1875 3.77639 19.9952 3.03906 20.9915 3.03906Z" fill="white"/>
<path d="M25.0007 8.32166V13.5154C25.0007 13.8329 24.7237 14.0967 24.3762 14.1009C24.024 14.1051 23.7344 13.8435 23.7344 13.523V8.93539C23.7344 8.77579 23.5927 8.64646 23.4178 8.64646C23.243 8.64646 23.1013 8.77579 23.1013 8.93539V21.1414C23.1013 21.5939 22.6994 21.9607 22.2038 21.9607C21.9559 21.9607 21.7315 21.869 21.5691 21.7207C21.4067 21.5725 21.3062 21.3677 21.3062 21.1414V15.1095C21.3062 14.9499 21.1645 14.8206 20.9896 14.8206C20.9022 14.8206 20.8231 14.8529 20.7657 14.9051C20.7085 14.9575 20.673 15.0297 20.673 15.1095V21.1414C20.673 21.5939 20.2712 21.9607 19.7755 21.9607H19.7754C19.2798 21.9607 18.8779 21.5939 18.8779 21.1414V8.93539C18.8779 8.77579 18.7362 8.64646 18.5614 8.64646C18.3865 8.64646 18.2448 8.77579 18.2448 8.93539V13.523C18.2448 13.8435 17.9554 14.1051 17.6032 14.1009C17.2555 14.0968 16.9785 13.8328 16.9785 13.5154V8.32166C16.9785 7.16576 17.6117 6.58789 18.8779 6.58789H23.1013C24.3676 6.58788 25.0007 7.16575 25.0007 8.32166Z" fill="white"/>
<path opacity="0.12" d="M20.9896 6.58789V14.8206C20.9022 14.8206 20.8231 14.8528 20.7657 14.9051C20.7085 14.9575 20.673 15.0297 20.673 15.1095V21.1414C20.673 21.5939 20.2712 21.9607 19.7755 21.9607H19.7754C19.2798 21.9607 18.8779 21.5939 18.8779 21.1414V8.9354C18.8779 8.7758 18.7362 8.64647 18.5614 8.64647C18.3865 8.64647 18.2448 8.7758 18.2448 8.9354V13.523C18.2448 13.8435 17.9553 14.1051 17.6032 14.1009C17.2555 14.0968 16.9785 13.8329 16.9785 13.5154V8.32168C16.9785 7.16578 17.6117 6.5879 18.8779 6.5879L20.9896 6.58789Z" fill="white"/>
<path d="M14.8844 2.17581C14.8844 3.37742 13.8171 4.35153 12.5007 4.35153C11.1843 4.35153 10.1172 3.37742 10.1172 2.17581C10.1172 0.974204 11.1843 0 12.5007 0C13.8171 0 14.8844 0.974204 14.8844 2.17581Z" fill="white"/>
<path opacity="0.06" d="M12.5007 0V4.35153C11.1843 4.35153 10.1172 3.37742 10.1172 2.17581C10.1172 0.974204 11.1843 0 12.5007 0Z" fill="#FDFFFF"/>
<path d="M17.8007 6.97927V13.8416C17.8007 14.261 17.4347 14.6097 16.9755 14.6152C16.5102 14.6208 16.1276 14.2751 16.1276 13.8516V7.79018C16.1276 7.57929 15.9403 7.40841 15.7093 7.40841C15.4782 7.40841 15.291 7.57929 15.291 7.79018V23.9176C15.291 24.5155 14.76 25.0001 14.1052 25.0001C13.7777 25.0001 13.4811 24.8789 13.2666 24.6831C13.052 24.4872 12.9193 24.2166 12.9193 23.9176V15.9478C12.9193 15.7369 12.732 15.5661 12.501 15.5661C12.3854 15.5661 12.2809 15.6087 12.2051 15.6778C12.1295 15.747 12.0826 15.8424 12.0826 15.9478V23.9176C12.0826 24.5155 11.5517 25.0001 10.8968 25.0001H10.8966C10.2418 25.0001 9.71078 24.5155 9.71078 23.9176V7.79018C9.71078 7.57929 9.52358 7.40841 9.29255 7.40841C9.06152 7.40841 8.87432 7.57929 8.87432 7.79018V13.8516C8.87432 14.2751 8.49184 14.6208 8.02653 14.6152C7.56717 14.6098 7.20117 14.261 7.20117 13.8416V6.97927C7.20117 5.45201 8.03774 4.68848 9.71078 4.68848H15.291C16.9642 4.68849 17.8007 5.45201 17.8007 6.97927Z" fill="white"/>
<path opacity="0.06" d="M12.501 4.68849V15.5661C12.3854 15.5661 12.2809 15.6088 12.2051 15.6778C12.1295 15.747 12.0826 15.8425 12.0826 15.9478V23.9176C12.0826 24.5155 11.5517 25.0001 10.8968 25.0001H10.8966C10.2418 25.0001 9.71078 24.5155 9.71078 23.9176V7.79018C9.71078 7.57929 9.52358 7.40841 9.29255 7.40841C9.06152 7.40841 8.87432 7.57929 8.87432 7.79018V13.8516C8.87432 14.2751 8.49184 14.6208 8.02653 14.6152C7.56717 14.6098 7.20117 14.261 7.20117 13.8416V6.97927C7.20117 5.45201 8.03774 4.68848 9.71078 4.68848L12.501 4.68849Z" fill="#FDFFFF"/>
</svg>
