<svg width="25" height="25" viewBox="0 0 25 25" fill="none" xmlns="http://www.w3.org/2000/svg">
<path fill-rule="evenodd" clip-rule="evenodd" d="M0.413687 24.9995C0.185147 24.9995 0 24.8143 0 24.5858V19.5407C0 18.3828 0.743479 17.3811 1.85089 17.046L7.10558 15.292L9.41702 19.7305C9.49166 19.855 9.62647 19.9314 9.77169 19.9314C9.91692 19.9314 10.0517 19.855 10.1264 19.7305L12.4378 15.292L17.6925 17.046C18.7999 17.3811 19.5434 18.3828 19.5434 19.5407V24.5858C19.5434 24.8143 19.3582 24.9995 19.1297 24.9995H0.413687Z" fill="white"/>
<path fill-rule="evenodd" clip-rule="evenodd" d="M10.5635 24.9997H8.98278L6.30567 20.5195C6.21773 20.3812 6.21946 20.2041 6.3103 20.0681L6.87268 19.2244L5.62642 18.2898C5.45053 18.1578 5.40887 17.9119 5.53037 17.729L7.08387 15.3981C7.09717 15.3767 7.1128 15.357 7.13015 15.3379L9.41787 19.7307C9.49251 19.8551 9.62732 19.9315 9.77254 19.9315C9.91777 19.9315 10.0526 19.8551 10.1272 19.7307L12.4149 15.3385C12.4294 15.3541 12.4433 15.3715 12.4554 15.39L14.0147 17.729C14.1362 17.9119 14.0946 18.1578 13.9187 18.2898L12.6724 19.2244L13.2348 20.0681C13.3256 20.2047 13.3274 20.3818 13.2394 20.5195L10.5635 24.9997Z" fill="#7E7E7E"/>
<path fill-rule="evenodd" clip-rule="evenodd" d="M7.10547 15.2924L7.78704 13.234C7.85878 13.017 8.09311 12.8995 8.3095 12.9713C9.22482 13.2745 10.4462 13.2322 11.2342 12.9713C11.4512 12.8995 11.685 13.017 11.7567 13.234L12.4383 15.2924L10.1268 19.7309C10.0522 19.8554 9.91738 19.9317 9.77216 19.9317C9.62693 19.9317 9.49212 19.8554 9.41749 19.7309L7.10547 15.2924Z" fill="white"/>
<path fill-rule="evenodd" clip-rule="evenodd" d="M7.53906 13.9874L7.78843 13.234C7.86018 13.017 8.0945 12.8995 8.31089 12.9713C9.22621 13.2745 10.4476 13.2322 11.2356 12.9713C11.4526 12.8995 11.6863 13.017 11.7581 13.234L12.0075 13.9874C11.8987 14.0401 11.7876 14.0893 11.6742 14.135C11.0678 14.3781 10.4262 14.5002 9.77355 14.5002C9.12033 14.5002 8.47868 14.3781 7.87233 14.135C7.75892 14.0899 7.64784 14.0401 7.53906 13.9874Z" fill="#C6C6C6"/>
<path fill-rule="evenodd" clip-rule="evenodd" d="M11.8495 16.423L11.3404 17.4005L10.1271 19.7303C10.0525 19.8547 9.91765 19.9311 9.77243 19.9311C9.6272 19.9311 9.49239 19.8547 9.41775 19.7303L7.69531 16.423C7.79483 16.408 7.90013 16.4167 7.99907 16.4531C8.5574 16.6597 9.15392 16.7645 9.77243 16.7645C10.3909 16.7645 10.9875 16.6597 11.5458 16.4531C11.6447 16.4167 11.7506 16.408 11.8495 16.423Z" fill="white"/>
<path fill-rule="evenodd" clip-rule="evenodd" d="M2.75709 13.6935C2.68129 13.6935 2.60492 13.6727 2.53723 13.6299C2.38159 13.5321 2.30926 13.3429 2.3596 13.1658C2.86644 11.3909 3.12333 9.55591 3.12333 7.71221V6.71686C3.12333 3.01382 6.10651 0.00057869 9.77299 0C11.5492 0 13.2196 0.692114 14.4757 1.94787C15.7318 3.20479 16.4238 4.87547 16.4238 6.65147V7.71163C16.4238 8.62827 16.4886 9.55476 16.6159 10.465C16.7438 11.3736 16.9358 12.2821 17.1875 13.1652C17.2367 13.3382 17.1684 13.5234 17.0186 13.6229C16.8687 13.7225 16.6714 13.7138 16.5308 13.6015L15.7474 12.9748C15.0711 12.4337 14.2223 12.1438 13.3556 12.1623C11.3913 12.204 8.31727 12.204 6.18982 12.1623C5.20565 12.145 4.25909 12.4957 3.52313 13.1496L3.03018 13.5876C2.95438 13.6582 2.85603 13.6935 2.75709 13.6935Z" fill="#747474"/>
<path fill-rule="evenodd" clip-rule="evenodd" d="M9.7729 14.0629C9.17175 14.0623 8.58738 13.95 8.03541 13.7284C7.14844 13.3736 6.39918 12.7637 5.8692 11.9645C5.35946 11.1954 5.08984 10.3002 5.08984 9.37488V6.29393C5.08984 5.19269 5.98549 4.29688 7.08653 4.29688H12.4598C13.5609 4.29688 14.4565 5.19269 14.4565 6.29393V9.37488C14.4565 10.3002 14.1869 11.1954 13.6772 11.9645C13.1466 12.7637 12.3973 13.3736 11.5104 13.7284C10.9578 13.95 10.374 14.0623 9.7729 14.0629Z" fill="white"/>
<path fill-rule="evenodd" clip-rule="evenodd" d="M17.5798 24.9999H23.8285H24.6095C24.8253 24.9999 25.0001 24.8252 25.0001 24.6093C25.0001 24.3935 24.8253 24.2187 24.6095 24.2187H24.219V22.6562H24.6095C24.8253 22.6562 25.0001 22.4815 25.0001 22.2656C25.0001 22.0498 24.8253 21.875 24.6095 21.875H17.5798C16.7182 21.875 16.0176 22.5758 16.0176 23.4375C16.0176 24.2991 16.7182 24.9999 17.5798 24.9999Z" fill="#818181"/>
<path fill-rule="evenodd" clip-rule="evenodd" d="M23.4381 24.2187H17.5799C17.1494 24.2187 16.7988 23.868 16.7988 23.4375C16.7988 23.0069 17.1494 22.6562 17.5799 22.6562H23.4381V24.2187Z" fill="white"/>
<path fill-rule="evenodd" clip-rule="evenodd" d="M23.4379 22.6562H17.1892H16.4081C16.1923 22.6562 16.0176 22.4814 16.0176 22.2656C16.0176 22.0497 16.1923 21.8749 16.4081 21.8749H16.7987V20.3125H16.4081C16.1923 20.3125 16.0176 20.1377 16.0176 19.9219C16.0176 19.706 16.1923 19.5312 16.4081 19.5312H23.4379C24.2994 19.5312 25.0001 20.232 25.0001 21.0937C25.0001 21.9554 24.2994 22.6562 23.4379 22.6562Z" fill="#BCBCBC"/>
<path fill-rule="evenodd" clip-rule="evenodd" d="M17.5801 21.875H23.4382C23.8687 21.875 24.2193 21.5243 24.2193 21.0937C24.2193 20.6632 23.8687 20.3125 23.4382 20.3125H17.5801V21.875Z" fill="white"/>
</svg>
