<svg width="210" height="33" viewBox="0 0 210 33" fill="none" xmlns="http://www.w3.org/2000/svg">
<path d="M8.81525 24.9065C8.63872 24.8858 8.42065 24.865 8.16105 24.8442C7.94298 24.8235 7.673 24.8079 7.35109 24.7975C7.03957 24.7871 6.68651 24.7819 6.29191 24.7819C5.52349 24.7819 4.60968 24.8183 3.5505 24.891C2.49132 24.9637 1.31273 25.1038 0.0147125 25.3115C0.565071 22.9959 0.944091 20.7269 1.15177 18.5047C1.36984 16.2825 1.47887 14.1434 1.47887 12.0874C1.47887 10.2182 1.40618 8.4633 1.26081 6.82261C1.11543 5.17153 0.923323 3.65026 0.684488 2.25879C1.7229 2.4457 2.65228 2.57031 3.47262 2.63262C4.30335 2.69492 5.01986 2.72607 5.62213 2.72607C6.0375 2.72607 6.40094 2.71569 6.71247 2.69492C7.03437 2.67415 7.29917 2.65339 7.50685 2.63262C7.75607 2.60147 7.96894 2.57031 8.14547 2.53916C8.49853 4.57445 8.93986 6.58897 9.46945 8.58272C9.99904 10.5661 10.6532 12.5598 11.432 14.564C12.0862 12.5391 12.6055 10.5142 12.9897 8.48926C13.3739 6.45397 13.6335 4.37715 13.7685 2.25879L13.8931 2.53916L13.7685 2.25879C14.8069 2.4457 15.7518 2.57031 16.6033 2.63262C17.4548 2.69492 18.2077 2.72607 18.8619 2.72607C19.298 2.72607 19.6822 2.71569 20.0145 2.69492C20.3468 2.67415 20.6324 2.65339 20.8712 2.63262C21.1412 2.60147 21.3748 2.57031 21.5721 2.53916C21.3541 3.57757 21.1879 4.80809 21.0737 6.23071C20.9595 7.64295 20.9024 9.15903 20.9024 10.779C20.9024 11.9316 20.9335 13.1206 20.9958 14.3459C21.0581 15.5608 21.1516 16.7758 21.2762 17.9907C21.4112 19.1953 21.5825 20.3843 21.7902 21.5577C21.9979 22.7311 22.2471 23.8474 22.5379 24.9065C22.3302 24.8858 22.0913 24.865 21.8214 24.8442C21.5825 24.8235 21.3021 24.8079 20.9802 24.7975C20.6583 24.7871 20.2845 24.7819 19.8588 24.7819C19.0488 24.7819 18.0935 24.8183 16.9927 24.891C15.9024 24.9637 14.7082 25.1038 13.4102 25.3115C13.6698 24.7923 13.8827 24.1277 14.0488 23.3178C14.2254 22.5078 14.3656 21.6459 14.4694 20.7321C14.5836 19.8183 14.6667 18.9097 14.7186 18.0063C14.7809 17.0925 14.8225 16.2773 14.8432 15.5608C14.5421 16.2047 14.2513 16.8589 13.971 17.5234C13.6906 18.188 13.3998 18.8993 13.0987 19.6574C12.8079 20.405 12.5016 21.215 12.1797 22.0873C11.8578 22.9595 11.5047 23.9304 11.1205 25C10.7259 23.9304 10.3677 22.9595 10.0458 22.0873C9.72386 21.215 9.41753 20.405 9.12677 19.6574C8.8464 18.9097 8.56603 18.2036 8.28566 17.539C8.01567 16.864 7.7353 16.1943 7.44455 15.5297C7.538 17.1704 7.69377 18.7903 7.91183 20.3895C8.1299 21.9782 8.43104 23.4839 8.81525 24.9065ZM38.4879 15.9035C38.4879 16.5058 38.4411 17.1704 38.3477 17.8973C38.2542 18.6138 38.0985 19.3407 37.8804 20.0779C37.6623 20.8048 37.3664 21.5161 36.9925 22.2119C36.6187 22.8972 36.1514 23.5047 35.5907 24.0343C35.0403 24.5639 34.3809 24.9896 33.6125 25.3115C32.8441 25.6334 31.9511 25.7944 30.9334 25.7944C29.9158 25.7944 29.0227 25.6438 28.2543 25.3427C27.4963 25.0415 26.8421 24.6417 26.2917 24.1433C25.7517 23.6345 25.3052 23.053 24.9522 22.3988C24.5991 21.7342 24.3187 21.0385 24.111 20.3116C23.9034 19.5847 23.758 18.8526 23.6749 18.1153C23.6022 17.3677 23.5659 16.6616 23.5659 15.997C23.5659 14.8236 23.7216 13.6761 24.0332 12.5546C24.3447 11.4228 24.8172 10.4155 25.4506 9.53286C26.0944 8.65021 26.894 7.9389 27.8493 7.39893C28.8151 6.85895 29.9469 6.58897 31.2449 6.58897C32.1172 6.58897 32.9012 6.72396 33.5969 6.99395C34.2927 7.25355 34.9105 7.6118 35.4505 8.0687C35.9905 8.5256 36.4474 9.06038 36.8212 9.67305C37.2054 10.2857 37.5221 10.9347 37.7714 11.6201C38.0206 12.3054 38.2023 13.0167 38.3165 13.754C38.4307 14.4913 38.4879 15.2078 38.4879 15.9035ZM33.0673 16.4175C33.0673 16.1787 33.057 15.8827 33.0362 15.5297C33.0258 15.1662 32.9947 14.7872 32.9427 14.3926C32.8908 13.998 32.8181 13.6034 32.7247 13.2088C32.6416 12.8142 32.5274 12.4612 32.382 12.1497C32.2366 11.8381 32.0549 11.5837 31.8368 11.3864C31.6291 11.1891 31.3799 11.0905 31.0892 11.0905C30.8088 11.0905 30.5648 11.1839 30.3571 11.3708C30.1494 11.5578 29.9677 11.8018 29.8119 12.1029C29.6666 12.4041 29.5419 12.7467 29.4381 13.131C29.3446 13.5048 29.2668 13.8838 29.2045 14.268C29.1525 14.6418 29.111 15.0053 29.0798 15.3583C29.0591 15.701 29.0487 15.9918 29.0487 16.2306C29.0487 16.5733 29.0747 16.9887 29.1266 17.4767C29.1785 17.9648 29.2771 18.432 29.4225 18.8786C29.5679 19.3251 29.7652 19.7093 30.0144 20.0312C30.274 20.3427 30.6115 20.4985 31.0269 20.4985C31.4215 20.4985 31.7486 20.3531 32.0082 20.0624C32.2782 19.7716 32.491 19.4185 32.6468 19.0032C32.8026 18.5774 32.9116 18.1309 32.9739 17.6636C33.0362 17.1963 33.0673 16.781 33.0673 16.4175ZM62.958 25.3115C62.6361 25.2596 62.2934 25.2233 61.93 25.2025C61.5769 25.1921 61.2083 25.1869 60.8241 25.1869C60.3568 25.1869 59.8895 25.1973 59.4222 25.2181C58.9549 25.2492 58.498 25.2856 58.0515 25.3271C57.605 25.3686 57.1793 25.4154 56.7743 25.4673C56.3693 25.5192 56.0059 25.5659 55.6839 25.6075C55.8189 25.0779 55.9384 24.4289 56.0422 23.6604C56.1564 22.8816 56.2499 22.0301 56.3226 21.106C56.3953 20.1818 56.4472 19.2109 56.4783 18.1932C56.5199 17.1652 56.5406 16.1268 56.5406 15.078C56.5406 14.9222 56.5354 14.7145 56.5251 14.4549C56.5251 14.1953 56.5147 13.915 56.4939 13.6138C56.4731 13.3127 56.4368 13.0115 56.3849 12.7104C56.3433 12.3989 56.2758 12.1185 56.1824 11.8693C56.0993 11.6201 55.9903 11.4176 55.8553 11.2618C55.7307 11.1061 55.5697 11.0282 55.3724 11.0282C55.1647 11.0282 54.9623 11.158 54.765 11.4176C54.5677 11.6772 54.3756 12.025 54.1886 12.4612C54.2198 13.0427 54.2457 13.7332 54.2665 14.5328C54.2873 15.322 54.3029 16.1475 54.3132 17.0094C54.3236 17.8713 54.3288 18.7228 54.3288 19.5639C54.3392 20.405 54.3496 21.1579 54.36 21.8225C54.3704 22.487 54.3807 23.027 54.3911 23.4424C54.4015 23.8474 54.4171 24.0499 54.4379 24.0499C53.9706 23.9772 53.5396 23.9201 53.145 23.8785C52.7608 23.837 52.3714 23.8162 51.9768 23.8162C51.4576 23.8162 50.8969 23.8577 50.2946 23.9408C49.6923 24.0239 48.9706 24.1537 48.1295 24.3302C48.2645 23.3437 48.3891 22.3261 48.5033 21.2773C48.5968 20.3739 48.6851 19.377 48.7681 18.2867C48.8512 17.1963 48.8927 16.1268 48.8927 15.078C48.8927 14.9222 48.8875 14.7145 48.8772 14.4549C48.8772 14.1953 48.8668 13.915 48.846 13.6138C48.8252 13.3127 48.7889 13.0115 48.737 12.7104C48.6954 12.3989 48.6279 12.1185 48.5345 11.8693C48.4514 11.6201 48.3424 11.4176 48.2074 11.2618C48.0724 11.1061 47.9062 11.0282 47.7089 11.0282C47.3767 11.0282 47.1015 11.1268 46.8834 11.3241C46.6757 11.511 46.5096 11.7654 46.385 12.0874C46.2604 12.4093 46.1721 12.7831 46.1202 13.2088C46.0786 13.6242 46.0579 14.0655 46.0579 14.5328C46.0579 15.4155 46.0786 16.3085 46.1202 17.2119C46.1617 18.1153 46.2292 19.0136 46.3227 19.9066C46.4161 20.7892 46.5355 21.6563 46.6809 22.5078C46.8263 23.3593 47.008 24.1693 47.2261 24.9377C47.0496 24.9273 46.8419 24.9117 46.603 24.891C46.3954 24.8806 46.1513 24.8702 45.871 24.8598C45.5906 24.8494 45.2687 24.8442 44.9052 24.8442C44.2303 24.8442 43.4515 24.8754 42.5688 24.9377C41.6862 24.9896 40.7308 25.0935 39.7028 25.2492C39.8274 24.6677 39.9364 23.9564 40.0299 23.1153C40.1234 22.2742 40.2012 21.3604 40.2635 20.3739C40.3258 19.3874 40.3726 18.3594 40.4037 17.2898C40.4453 16.2098 40.466 15.1455 40.466 14.0967C40.466 13.3179 40.4556 12.5546 40.4349 11.807C40.4141 11.0593 40.383 10.3532 40.3414 9.68862C40.3103 9.02404 40.2635 8.41138 40.2012 7.85063C40.1389 7.28989 40.0662 6.80703 39.9832 6.40205C40.8243 6.54743 41.6031 6.65127 42.3196 6.71357C43.0361 6.7655 43.6851 6.79146 44.2666 6.79146C44.6404 6.79146 44.9727 6.78626 45.2635 6.77588C45.5646 6.75511 45.819 6.73434 46.0267 6.71357C46.2759 6.68242 46.494 6.65127 46.6809 6.62012C46.6186 6.8901 46.5615 7.18086 46.5096 7.49238C46.468 7.79352 46.4213 8.12062 46.3694 8.47368C46.9509 7.72603 47.574 7.16528 48.2385 6.79146C48.9031 6.40724 49.5573 6.21514 50.2011 6.21514C51.0942 6.21514 51.8211 6.4384 52.3818 6.88491C52.9529 7.32105 53.3839 8.02197 53.6746 8.9877C54.2873 8.05313 54.9571 7.35739 55.6839 6.90049C56.4212 6.44359 57.1429 6.21514 57.849 6.21514C58.5967 6.21514 59.2613 6.3709 59.8428 6.68242C60.4347 6.98356 60.9279 7.46123 61.3225 8.11543C61.7171 8.76963 62.0183 9.60555 62.2259 10.6232C62.4336 11.6408 62.5375 12.861 62.5375 14.2836C62.5375 15.2597 62.5375 16.2773 62.5375 17.3365C62.5478 18.3957 62.5634 19.4237 62.5842 20.4206C62.6153 21.4071 62.6569 22.3313 62.7088 23.1932C62.7711 24.0447 62.8542 24.7508 62.958 25.3115ZM87.5061 25.3115C87.1842 25.2596 86.8415 25.2233 86.478 25.2025C86.125 25.1921 85.7563 25.1869 85.3721 25.1869C84.9048 25.1869 84.4376 25.1973 83.9703 25.2181C83.503 25.2492 83.0461 25.2856 82.5996 25.3271C82.1531 25.3686 81.7273 25.4154 81.3223 25.4673C80.9173 25.5192 80.5539 25.5659 80.232 25.6075C80.367 25.0779 80.4864 24.4289 80.5902 23.6604C80.7045 22.8816 80.7979 22.0301 80.8706 21.106C80.9433 20.1818 80.9952 19.2109 81.0264 18.1932C81.0679 17.1652 81.0887 16.1268 81.0887 15.078C81.0887 14.9222 81.0835 14.7145 81.0731 14.4549C81.0731 14.1953 81.0627 13.915 81.042 13.6138C81.0212 13.3127 80.9848 13.0115 80.9329 12.7104C80.8914 12.3989 80.8239 12.1185 80.7304 11.8693C80.6474 11.6201 80.5383 11.4176 80.4033 11.2618C80.2787 11.1061 80.1178 11.0282 79.9205 11.0282C79.7128 11.0282 79.5103 11.158 79.313 11.4176C79.1157 11.6772 78.9236 12.025 78.7367 12.4612C78.7678 13.0427 78.7938 13.7332 78.8146 14.5328C78.8353 15.322 78.8509 16.1475 78.8613 17.0094C78.8717 17.8713 78.8769 18.7228 78.8769 19.5639C78.8873 20.405 78.8976 21.1579 78.908 21.8225C78.9184 22.487 78.9288 23.027 78.9392 23.4424C78.9496 23.8474 78.9651 24.0499 78.9859 24.0499C78.5186 23.9772 78.0877 23.9201 77.6931 23.8785C77.3089 23.837 76.9195 23.8162 76.5249 23.8162C76.0057 23.8162 75.4449 23.8577 74.8426 23.9408C74.2404 24.0239 73.5187 24.1537 72.6776 24.3302C72.8125 23.3437 72.9372 22.3261 73.0514 21.2773C73.1448 20.3739 73.2331 19.377 73.3162 18.2867C73.3992 17.1963 73.4408 16.1268 73.4408 15.078C73.4408 14.9222 73.4356 14.7145 73.4252 14.4549C73.4252 14.1953 73.4148 13.915 73.3941 13.6138C73.3733 13.3127 73.3369 13.0115 73.285 12.7104C73.2435 12.3989 73.176 12.1185 73.0825 11.8693C72.9995 11.6201 72.8904 11.4176 72.7554 11.2618C72.6204 11.1061 72.4543 11.0282 72.257 11.0282C71.9247 11.0282 71.6495 11.1268 71.4315 11.3241C71.2238 11.511 71.0576 11.7654 70.933 12.0874C70.8084 12.4093 70.7201 12.7831 70.6682 13.2088C70.6267 13.6242 70.6059 14.0655 70.6059 14.5328C70.6059 15.4155 70.6267 16.3085 70.6682 17.2119C70.7098 18.1153 70.7773 19.0136 70.8707 19.9066C70.9642 20.7892 71.0836 21.6563 71.229 22.5078C71.3743 23.3593 71.5561 24.1693 71.7741 24.9377C71.5976 24.9273 71.3899 24.9117 71.1511 24.891C70.9434 24.8806 70.6994 24.8702 70.419 24.8598C70.1386 24.8494 69.8167 24.8442 69.4533 24.8442C68.7783 24.8442 67.9995 24.8754 67.1169 24.9377C66.2342 24.9896 65.2789 25.0935 64.2508 25.2492C64.3755 24.6677 64.4845 23.9564 64.5779 23.1153C64.6714 22.2742 64.7493 21.3604 64.8116 20.3739C64.8739 19.3874 64.9206 18.3594 64.9518 17.2898C64.9933 16.2098 65.0141 15.1455 65.0141 14.0967C65.0141 13.3179 65.0037 12.5546 64.9829 11.807C64.9622 11.0593 64.931 10.3532 64.8895 9.68862C64.8583 9.02404 64.8116 8.41138 64.7493 7.85063C64.687 7.28989 64.6143 6.80703 64.5312 6.40205C65.3723 6.54743 66.1511 6.65127 66.8676 6.71357C67.5841 6.7655 68.2332 6.79146 68.8147 6.79146C69.1885 6.79146 69.5208 6.78626 69.8115 6.77588C70.1127 6.75511 70.3671 6.73434 70.5748 6.71357C70.824 6.68242 71.0421 6.65127 71.229 6.62012C71.1667 6.8901 71.1096 7.18086 71.0576 7.49238C71.0161 7.79352 70.9694 8.12062 70.9174 8.47368C71.499 7.72603 72.122 7.16528 72.7866 6.79146C73.4512 6.40724 74.1054 6.21514 74.7492 6.21514C75.6422 6.21514 76.3691 6.4384 76.9298 6.88491C77.501 7.32105 77.9319 8.02197 78.2227 8.9877C78.8353 8.05313 79.5051 7.35739 80.232 6.90049C80.9693 6.44359 81.691 6.21514 82.3971 6.21514C83.1447 6.21514 83.8093 6.3709 84.3908 6.68242C84.9827 6.98356 85.476 7.46123 85.8706 8.11543C86.2652 8.76963 86.5663 9.60555 86.774 10.6232C86.9817 11.6408 87.0855 12.861 87.0855 14.2836C87.0855 15.2597 87.0855 16.2773 87.0855 17.3365C87.0959 18.3957 87.1115 19.4237 87.1322 20.4206C87.1634 21.4071 87.2049 22.3313 87.2568 23.1932C87.3192 24.0447 87.4022 24.7508 87.5061 25.3115ZM104.297 7.10298C104.183 7.53911 104.084 8.06351 104.001 8.67617C103.929 9.28883 103.861 9.94823 103.799 10.6543C103.736 11.3605 103.685 12.0977 103.643 12.8662C103.612 13.6346 103.581 14.3822 103.55 15.1091C103.487 16.8225 103.451 18.6293 103.44 20.5296C103.44 21.5888 103.373 22.6324 103.238 23.6604C103.113 24.6885 102.906 25.6594 102.615 26.5732C102.335 27.4974 101.966 28.3489 101.509 29.1277C101.063 29.9169 100.512 30.5918 99.858 31.1526C99.2142 31.7237 98.4613 32.1702 97.5994 32.4921C96.7479 32.814 95.7822 32.975 94.7023 32.975C93.695 32.975 92.8227 32.8712 92.0855 32.6635C91.3482 32.4558 90.7355 32.1598 90.2475 31.7756C89.7698 31.4018 89.4115 30.9501 89.1727 30.4205C88.9443 29.8909 88.83 29.3094 88.83 28.676C88.83 28.0425 88.9391 27.4662 89.1571 26.947C89.3752 26.4382 89.6608 26.0073 90.0138 25.6542C90.3669 25.3011 90.7667 25.0312 91.2132 24.8442C91.6597 24.6469 92.1114 24.5483 92.5683 24.5483C93.1498 24.5483 93.7002 24.7144 94.2194 25.0467C94.7386 25.379 95.1332 25.9034 95.4032 26.6199C95.3409 26.568 95.2682 26.5317 95.1851 26.5109C95.1124 26.5005 95.0345 26.4953 94.9515 26.4953C94.8372 26.4953 94.7178 26.5213 94.5932 26.5732C94.479 26.6251 94.3752 26.6978 94.2817 26.7913C94.1882 26.8847 94.1104 26.9886 94.0481 27.1028C93.9961 27.2274 93.9702 27.3572 93.9702 27.4922C93.9702 27.6479 94.0013 27.7778 94.0636 27.8816C94.1259 27.9958 94.1986 28.0841 94.2817 28.1464C94.3752 28.2087 94.4738 28.2502 94.5776 28.271C94.6919 28.3021 94.7957 28.3177 94.8892 28.3177C95.0345 28.3177 95.2163 28.2866 95.4343 28.2243C95.6524 28.162 95.8757 28.0322 96.1041 27.8349C96.3429 27.6376 96.5766 27.3624 96.805 27.0093C97.0439 26.6563 97.2516 26.1838 97.4281 25.5919C97.615 25.0104 97.7604 24.2991 97.8642 23.458C97.9784 22.6168 98.0304 21.6096 98.02 20.4362C97.75 21.1631 97.4644 21.755 97.1633 22.2119C96.8725 22.6584 96.561 23.0063 96.2287 23.2555C95.9068 23.5047 95.5641 23.6708 95.2007 23.7539C94.8476 23.837 94.4686 23.8785 94.0636 23.8785C93.5548 23.8785 93.02 23.7903 92.4593 23.6137C91.9089 23.4268 91.4001 23.1049 90.9328 22.648C90.4759 22.1807 90.0969 21.5473 89.7958 20.7477C89.4946 19.9481 89.3441 18.9305 89.3441 17.6948C89.3441 17.5286 89.3441 17.4144 89.3441 17.3521C89.3544 17.2794 89.3596 17.2275 89.3596 17.1963C89.3596 17.1548 89.3648 17.1081 89.3752 17.0562C89.3856 17.0042 89.3908 16.9056 89.3908 16.7602C89.3908 16.6044 89.3908 16.3864 89.3908 16.106C89.4012 15.8256 89.4064 15.431 89.4064 14.9222C89.4064 14.3303 89.396 13.6605 89.3752 12.9129C89.3544 12.1652 89.3077 11.4332 89.235 10.7167C89.1727 10.0001 89.0793 9.35114 88.9546 8.76963C88.83 8.17773 88.6691 7.7416 88.4718 7.46123C89.3129 7.60661 90.1021 7.70526 90.8394 7.75718C91.587 7.8091 92.2672 7.83506 92.8798 7.83506C93.2848 7.83506 93.6483 7.82987 93.9702 7.81948C94.3025 7.79871 94.588 7.77795 94.8269 7.75718C95.0969 7.73641 95.3409 7.71045 95.5589 7.6793C95.4759 7.85583 95.3824 8.19331 95.2786 8.69175C95.1851 9.19019 95.0917 9.78727 94.9982 10.483C94.9047 11.1787 94.8269 11.942 94.7646 12.7727C94.7023 13.5931 94.6711 14.4238 94.6711 15.2649C94.6711 15.8983 94.7178 16.4383 94.8113 16.8848C94.9047 17.3313 95.0294 17.7 95.1851 17.9907C95.3513 18.2711 95.5382 18.4788 95.7459 18.6138C95.9639 18.7488 96.1976 18.8163 96.4468 18.8163C96.8414 18.8163 97.1529 18.6553 97.3814 18.3334C97.6202 18.0115 97.8227 17.6065 97.9888 17.1185C97.9681 16.4746 97.9317 15.7218 97.8798 14.8599C97.8279 13.998 97.7552 13.0998 97.6617 12.1652C97.5787 11.2307 97.4644 10.2909 97.3191 9.34595C97.1841 8.39061 97.0127 7.50277 96.805 6.68242C97.1269 6.79665 97.5112 6.90049 97.9577 6.99395C98.3419 7.07702 98.8092 7.14971 99.3595 7.21201C99.9099 7.26393 100.559 7.28989 101.307 7.28989C102.189 7.28989 103.186 7.22759 104.297 7.10298ZM128.16 13.2867C127.308 15.3947 126.883 17.4404 126.883 19.4237C126.883 20.3791 126.971 21.3448 127.147 22.3209C127.324 23.2866 127.599 24.2731 127.973 25.2804C127.381 25.135 126.831 25.026 126.322 24.9533C125.813 24.8806 125.309 24.8442 124.811 24.8442C124.281 24.8442 123.741 24.891 123.191 24.9844C122.641 25.0779 122.044 25.2233 121.4 25.4206L122.038 22.9284C121.831 23.2607 121.582 23.6033 121.291 23.9564C121 24.2991 120.652 24.6106 120.247 24.891C119.853 25.1713 119.396 25.3998 118.876 25.5763C118.368 25.7632 117.781 25.8567 117.116 25.8567C116.119 25.8567 115.2 25.6179 114.359 25.1402C113.529 24.6625 112.812 23.972 112.21 23.0686C111.608 22.1651 111.135 21.0592 110.792 19.7508C110.46 18.432 110.294 16.9367 110.294 15.2649C110.294 14.1538 110.398 13.0531 110.606 11.9627C110.813 10.862 111.114 9.81842 111.509 8.83193C111.904 7.83506 112.392 6.91606 112.973 6.07495C113.555 5.22345 114.214 4.49137 114.951 3.87871C115.689 3.25566 116.504 2.7728 117.397 2.43013C118.3 2.07707 119.271 1.90054 120.309 1.90054C121.254 1.90054 122.08 1.99919 122.786 2.19648C123.492 2.3834 124.105 2.63781 124.624 2.95972C125.143 3.27124 125.569 3.63468 125.901 4.05005C126.244 4.45503 126.514 4.88078 126.711 5.3273C126.909 5.77381 127.049 6.22033 127.132 6.66685C127.215 7.10298 127.256 7.51315 127.256 7.89736C127.256 8.44772 127.158 8.97731 126.961 9.48613C126.774 9.99495 126.509 10.4415 126.166 10.8257C125.823 11.2099 125.418 11.5162 124.951 11.7447C124.484 11.9731 123.97 12.0874 123.409 12.0874C122.828 12.0874 122.324 11.9991 121.898 11.8226C121.473 11.646 121.119 11.4176 120.839 11.1372C120.559 10.8465 120.346 10.5245 120.2 10.1715C120.065 9.81842 119.998 9.46536 119.998 9.1123C119.998 8.81117 120.05 8.50483 120.154 8.19331C120.258 7.88179 120.403 7.59103 120.59 7.32105C120.652 7.53911 120.74 7.71045 120.855 7.83506C120.969 7.94928 121.083 8.03236 121.197 8.08428C121.322 8.14658 121.462 8.18293 121.618 8.19331C121.971 8.19331 122.22 8.10505 122.366 7.92852C122.521 7.75199 122.599 7.5495 122.599 7.32105C122.599 7.2172 122.573 7.11336 122.521 7.00952C122.48 6.8953 122.412 6.79146 122.319 6.698C122.225 6.60454 122.101 6.52666 121.945 6.46436C121.8 6.40205 121.618 6.3709 121.4 6.3709C121.254 6.3709 121.052 6.40205 120.792 6.46436C120.543 6.51628 120.268 6.62531 119.967 6.79146C119.676 6.9576 119.38 7.19644 119.079 7.50796C118.778 7.8091 118.503 8.21408 118.253 8.7229C118.004 9.23172 117.802 9.85477 117.646 10.592C117.49 11.3293 117.412 12.2068 117.412 13.2244C117.412 14.0655 117.48 14.8028 117.615 15.4362C117.76 16.0697 117.957 16.5993 118.207 17.025C118.456 17.4507 118.752 17.7727 119.095 17.9907C119.437 18.1984 119.811 18.3022 120.216 18.3022C120.6 18.3022 120.917 18.2036 121.166 18.0063C121.415 17.809 121.613 17.5702 121.758 17.2898C121.903 17.0094 122.002 16.7187 122.054 16.4175C122.106 16.1164 122.132 15.862 122.132 15.6543C122.132 15.6439 122.122 15.5712 122.101 15.4362C122.09 15.3012 122.044 15.1455 121.961 14.9689C121.877 14.7924 121.742 14.6107 121.556 14.4238C121.369 14.2369 121.104 14.0811 120.761 13.9565C121.987 13.9565 123.217 13.9046 124.453 13.8007C125.688 13.6865 126.924 13.5152 128.16 13.2867ZM137.599 10.8724C137.277 10.8724 136.986 10.9659 136.727 11.1528C136.467 11.3293 136.234 11.5837 136.026 11.916C135.829 12.2379 135.652 12.6273 135.496 13.0842C135.351 13.5411 135.231 14.0448 135.138 14.5951C135.138 15.4778 135.159 16.3708 135.2 17.2742C135.242 18.1776 135.309 19.0707 135.403 19.9533C135.496 20.836 135.616 21.6979 135.761 22.539C135.917 23.3801 136.104 24.1797 136.322 24.9377C136.156 24.9273 135.964 24.9117 135.745 24.891C135.559 24.8806 135.33 24.8702 135.06 24.8598C134.801 24.8494 134.499 24.8442 134.157 24.8442C133.513 24.8442 132.765 24.8754 131.914 24.9377C131.073 24.9896 130.138 25.0935 129.11 25.2492C129.235 24.6677 129.344 23.9564 129.437 23.1153C129.531 22.2742 129.608 21.3604 129.671 20.3739C129.733 19.3874 129.78 18.3594 129.811 17.2898C129.852 16.2098 129.873 15.1455 129.873 14.0967C129.873 13.3179 129.863 12.5546 129.842 11.807C129.821 11.0593 129.79 10.3532 129.749 9.68862C129.717 9.02404 129.671 8.41138 129.608 7.85063C129.546 7.28989 129.473 6.80703 129.39 6.40205C130.232 6.54743 130.995 6.65127 131.68 6.71357C132.376 6.7655 132.999 6.79146 133.549 6.79146C133.902 6.79146 134.214 6.78626 134.484 6.77588C134.754 6.75511 134.987 6.73434 135.185 6.71357C135.403 6.68242 135.6 6.65127 135.777 6.62012C135.652 7.13932 135.559 7.71564 135.496 8.34907C136.036 7.69487 136.623 7.21201 137.256 6.90049C137.9 6.58897 138.502 6.4332 139.063 6.4332C139.998 6.4332 140.787 6.60454 141.431 6.94722C142.075 7.27951 142.594 7.72083 142.988 8.27119C143.383 8.81117 143.669 9.42902 143.845 10.1248C144.022 10.8205 144.11 11.5266 144.11 12.2431C144.11 12.9389 144.011 13.619 143.814 14.2836C143.617 14.9482 143.331 15.5453 142.957 16.0749C142.583 16.5941 142.121 17.0146 141.571 17.3365C141.021 17.6584 140.398 17.8194 139.702 17.8194C139.089 17.8194 138.565 17.7155 138.129 17.5079C137.703 17.3002 137.35 17.0302 137.069 16.6979C136.789 16.3656 136.581 16.0022 136.446 15.6076C136.322 15.2026 136.259 14.8028 136.259 14.4082C136.259 13.9928 136.317 13.5879 136.431 13.1933C136.555 12.7987 136.732 12.4404 136.96 12.1185C137.033 12.347 137.121 12.5235 137.225 12.6481C137.339 12.7623 137.454 12.8454 137.568 12.8973C137.692 12.9596 137.827 12.996 137.973 13.0063C138.357 13.0063 138.643 12.9181 138.83 12.7416C139.027 12.565 139.126 12.3573 139.126 12.1185C139.126 12.0043 139.105 11.8745 139.063 11.7291C139.022 11.5837 138.944 11.4487 138.83 11.3241C138.726 11.1995 138.575 11.0957 138.378 11.0126C138.181 10.9191 137.921 10.8724 137.599 10.8724ZM159.702 15.9035C159.702 16.5058 159.655 17.1704 159.561 17.8973C159.468 18.6138 159.312 19.3407 159.094 20.0779C158.876 20.8048 158.58 21.5161 158.206 22.2119C157.832 22.8972 157.365 23.5047 156.804 24.0343C156.254 24.5639 155.595 24.9896 154.826 25.3115C154.058 25.6334 153.165 25.7944 152.147 25.7944C151.13 25.7944 150.237 25.6438 149.468 25.3427C148.71 25.0415 148.056 24.6417 147.505 24.1433C146.966 23.6345 146.519 23.053 146.166 22.3988C145.813 21.7342 145.533 21.0385 145.325 20.3116C145.117 19.5847 144.972 18.8526 144.889 18.1153C144.816 17.3677 144.78 16.6616 144.78 15.997C144.78 14.8236 144.935 13.6761 145.247 12.5546C145.558 11.4228 146.031 10.4155 146.664 9.53286C147.308 8.65021 148.108 7.9389 149.063 7.39893C150.029 6.85895 151.161 6.58897 152.459 6.58897C153.331 6.58897 154.115 6.72396 154.811 6.99395C155.506 7.25355 156.124 7.6118 156.664 8.0687C157.204 8.5256 157.661 9.06038 158.035 9.67305C158.419 10.2857 158.736 10.9347 158.985 11.6201C159.234 12.3054 159.416 13.0167 159.53 13.754C159.645 14.4913 159.702 15.2078 159.702 15.9035ZM154.281 16.4175C154.281 16.1787 154.271 15.8827 154.25 15.5297C154.24 15.1662 154.208 14.7872 154.157 14.3926C154.105 13.998 154.032 13.6034 153.938 13.2088C153.855 12.8142 153.741 12.4612 153.596 12.1497C153.45 11.8381 153.269 11.5837 153.051 11.3864C152.843 11.1891 152.594 11.0905 152.303 11.0905C152.023 11.0905 151.779 11.1839 151.571 11.3708C151.363 11.5578 151.181 11.8018 151.026 12.1029C150.88 12.4041 150.756 12.7467 150.652 13.131C150.558 13.5048 150.481 13.8838 150.418 14.268C150.366 14.6418 150.325 15.0053 150.294 15.3583C150.273 15.701 150.262 15.9918 150.262 16.2306C150.262 16.5733 150.288 16.9887 150.34 17.4767C150.392 17.9648 150.491 18.432 150.636 18.8786C150.782 19.3251 150.979 19.7093 151.228 20.0312C151.488 20.3427 151.825 20.4985 152.241 20.4985C152.635 20.4985 152.962 20.3531 153.222 20.0624C153.492 19.7716 153.705 19.4185 153.861 19.0032C154.016 18.5774 154.125 18.1309 154.188 17.6636C154.25 17.1963 154.281 16.781 154.281 16.4175ZM175.044 7.04067C174.951 7.50796 174.862 8.05313 174.779 8.67617C174.707 9.29922 174.639 9.97419 174.577 10.7011C174.525 11.4176 174.483 12.1704 174.452 12.9596C174.421 13.7384 174.406 14.5172 174.406 15.296C174.406 15.5556 174.411 15.8153 174.421 16.0749C174.431 16.3241 174.437 16.5681 174.437 16.8069C174.437 17.3158 174.406 17.8921 174.343 18.5359C174.291 19.1797 174.177 19.8391 174.001 20.5141C173.834 21.1786 173.601 21.8328 173.3 22.4767C172.998 23.1205 172.599 23.6916 172.1 24.19C171.612 24.6885 171.015 25.0883 170.309 25.3894C169.603 25.7009 168.767 25.8567 167.801 25.8567C166.971 25.8567 166.233 25.7477 165.589 25.5296C164.956 25.3115 164.4 25.0156 163.923 24.6417C163.455 24.2575 163.061 23.8058 162.739 23.2866C162.417 22.7674 162.157 22.2119 161.96 21.62C161.763 21.0177 161.617 20.3895 161.524 19.7353C161.441 19.0811 161.399 18.432 161.399 17.7882C161.399 17.6325 161.399 17.539 161.399 17.5079C161.41 17.4663 161.415 17.4404 161.415 17.43C161.415 17.4196 161.42 17.404 161.431 17.3833C161.441 17.3521 161.446 17.269 161.446 17.134C161.446 16.999 161.446 16.7862 161.446 16.4954C161.457 16.2047 161.462 15.7945 161.462 15.2649C161.462 14.6418 161.451 13.9409 161.431 13.1621C161.41 12.3729 161.363 11.6045 161.29 10.8568C161.228 10.0988 161.135 9.41344 161.01 8.80078C160.885 8.18812 160.724 7.7416 160.527 7.46123C161.368 7.60661 162.157 7.70526 162.895 7.75718C163.642 7.8091 164.323 7.83506 164.935 7.83506C165.34 7.83506 165.704 7.82987 166.026 7.81948C166.358 7.79871 166.643 7.77795 166.882 7.75718C167.152 7.73641 167.396 7.71045 167.614 7.6793C167.407 8.69694 167.204 9.85477 167.007 11.1528C166.82 12.4404 166.726 13.9201 166.726 15.592C166.726 15.9762 166.742 16.376 166.773 16.7914C166.815 17.2067 166.882 17.5909 166.976 17.944C167.069 18.2867 167.194 18.5722 167.35 18.8007C167.516 19.0188 167.723 19.1278 167.973 19.1278C168.284 19.1278 168.528 19.0239 168.705 18.8163C168.881 18.6086 169.011 18.3386 169.094 18.0063C169.188 17.6636 169.239 17.2846 169.25 16.8692C169.271 16.4539 169.281 16.0385 169.281 15.6231C169.271 14.2732 169.229 13.0115 169.156 11.8381C169.125 11.3397 169.084 10.8361 169.032 10.3272C168.99 9.81842 168.938 9.34076 168.876 8.89424C168.814 8.43734 168.741 8.03236 168.658 7.6793C168.575 7.31585 168.481 7.03029 168.378 6.82261C169.219 6.96799 169.997 7.06663 170.714 7.11855C171.43 7.17048 172.069 7.19644 172.63 7.19644C173.004 7.19644 173.336 7.19124 173.627 7.18086C173.928 7.16009 174.182 7.13932 174.39 7.11855C174.639 7.09779 174.857 7.07183 175.044 7.04067ZM192.38 25.3115C192.059 25.2596 191.705 25.2233 191.321 25.2025C190.937 25.1921 190.537 25.1869 190.122 25.1869C189.623 25.1869 189.115 25.1973 188.595 25.2181C188.087 25.2492 187.588 25.2856 187.1 25.3271C186.612 25.3686 186.15 25.4154 185.714 25.4673C185.278 25.5192 184.899 25.5659 184.577 25.6075C185.023 24.1018 185.366 22.4922 185.605 20.7789C185.854 19.0655 185.979 17.1652 185.979 15.078C185.979 14.9222 185.973 14.7145 185.963 14.4549C185.963 14.1953 185.953 13.915 185.932 13.6138C185.911 13.3127 185.875 13.0115 185.823 12.7104C185.781 12.3989 185.714 12.1185 185.62 11.8693C185.537 11.6201 185.428 11.4176 185.293 11.2618C185.158 11.1061 184.992 11.0282 184.795 11.0282C184.504 11.0282 184.219 11.132 183.938 11.3397C183.668 11.5474 183.424 11.8226 183.206 12.1652C182.998 12.5079 182.827 12.9025 182.692 13.349C182.567 13.7955 182.505 14.2576 182.505 14.7353C182.505 15.5972 182.526 16.4746 182.567 17.3677C182.609 18.2503 182.676 19.1278 182.77 20C182.863 20.8723 182.983 21.729 183.128 22.5701C183.274 23.4008 183.455 24.19 183.673 24.9377C183.497 24.9273 183.289 24.9117 183.05 24.891C182.843 24.8806 182.599 24.8702 182.318 24.8598C182.038 24.8494 181.716 24.8442 181.353 24.8442C180.678 24.8442 179.899 24.8754 179.016 24.9377C178.133 24.9896 177.178 25.0935 176.15 25.2492C176.275 24.6677 176.384 23.9564 176.477 23.1153C176.571 22.2742 176.649 21.3604 176.711 20.3739C176.773 19.3874 176.82 18.3594 176.851 17.2898C176.893 16.2098 176.913 15.1455 176.913 14.0967C176.913 13.3179 176.903 12.5546 176.882 11.807C176.861 11.0593 176.83 10.3532 176.789 9.68862C176.758 9.02404 176.711 8.41138 176.649 7.85063C176.586 7.28989 176.514 6.80703 176.43 6.40205C177.272 6.54743 178.05 6.65127 178.767 6.71357C179.483 6.7655 180.132 6.79146 180.714 6.79146C181.088 6.79146 181.42 6.78626 181.711 6.77588C182.012 6.75511 182.266 6.73434 182.474 6.71357C182.723 6.68242 182.941 6.65127 183.128 6.62012C183.066 6.94202 183.004 7.2847 182.941 7.64814C182.889 8.01159 182.837 8.40619 182.786 8.83193C183.128 8.3958 183.492 8.01678 183.876 7.69487C184.26 7.36258 184.644 7.0874 185.028 6.86934C185.423 6.65127 185.812 6.49032 186.197 6.38647C186.581 6.27225 186.944 6.21514 187.287 6.21514C188.035 6.21514 188.679 6.3709 189.218 6.68242C189.769 6.98356 190.221 7.46123 190.574 8.11543C190.937 8.76963 191.207 9.60555 191.384 10.6232C191.56 11.6408 191.648 12.861 191.648 14.2836C191.648 15.2597 191.648 16.2514 191.648 17.2586C191.659 18.2659 191.685 19.2524 191.726 20.2181C191.768 21.1838 191.84 22.1028 191.944 22.9751C192.048 23.837 192.194 24.6158 192.38 25.3115ZM209.577 25.2181C209.338 25.1973 209.068 25.1765 208.767 25.1558C208.507 25.135 208.201 25.1194 207.848 25.109C207.505 25.0986 207.126 25.0935 206.711 25.0935C206.119 25.0935 205.49 25.1142 204.826 25.1558C204.161 25.1973 203.502 25.2752 202.848 25.3894C202.91 25.2648 202.977 25.0052 203.05 24.6106C203.123 24.216 203.19 23.7799 203.253 23.3022C203.325 22.8245 203.388 22.3521 203.44 21.8848C203.502 21.4175 203.549 21.054 203.58 20.7944C203.414 21.5732 203.18 22.2846 202.879 22.9284C202.588 23.5618 202.245 24.107 201.851 24.5639C201.456 25.0104 201.015 25.3583 200.527 25.6075C200.039 25.8567 199.525 25.9813 198.985 25.9813C198.736 25.9813 198.429 25.9657 198.066 25.9346C197.702 25.9034 197.313 25.7996 196.898 25.623C196.493 25.4465 196.082 25.1765 195.667 24.8131C195.262 24.4393 194.893 23.9201 194.561 23.2555C194.239 22.5805 193.974 21.729 193.767 20.701C193.569 19.6729 193.471 18.4165 193.471 16.9315C193.471 15.6854 193.559 14.5743 193.736 13.5982C193.922 12.6118 194.166 11.7447 194.468 10.997C194.779 10.2494 195.137 9.61593 195.542 9.09673C195.958 8.56714 196.389 8.1362 196.835 7.80391C197.292 7.47161 197.754 7.23278 198.221 7.0874C198.699 6.93164 199.156 6.85376 199.592 6.85376C200.08 6.85376 200.522 6.93683 200.916 7.10298C201.311 7.25874 201.669 7.46642 201.991 7.72603C202.313 7.97524 202.593 8.266 202.832 8.59829C203.071 8.9202 203.279 9.24211 203.455 9.56401C203.434 9.08634 203.414 8.56714 203.393 8.0064C203.372 7.44565 203.346 6.87972 203.315 6.30859C203.284 5.73747 203.242 5.17673 203.19 4.62637C203.149 4.06563 203.097 3.54642 203.035 3.06875C202.983 2.59108 202.92 2.17052 202.848 1.80708C202.775 1.44364 202.692 1.16846 202.598 0.981543C203.429 1.12692 204.203 1.22557 204.919 1.27749C205.636 1.32941 206.285 1.35537 206.866 1.35537C207.24 1.35537 207.578 1.35018 207.879 1.3398C208.18 1.31903 208.434 1.29826 208.642 1.27749C208.891 1.25672 209.109 1.23076 209.296 1.19961C209.182 1.71882 209.078 2.39897 208.985 3.24009C208.891 4.07082 208.808 5.01058 208.735 6.05938C208.673 7.10817 208.621 8.23485 208.58 9.4394C208.548 10.6336 208.533 11.8537 208.533 13.0998C208.533 14.2524 208.548 15.3999 208.58 16.5421C208.621 17.6844 208.683 18.7851 208.767 19.8443C208.85 20.8931 208.959 21.8796 209.094 22.8038C209.229 23.7176 209.39 24.5223 209.577 25.2181ZM203.175 16.2929V13.7696C203.175 13.4892 203.159 13.2036 203.128 12.9129C203.097 12.6221 203.024 12.3573 202.91 12.1185C202.806 11.8797 202.65 11.6876 202.443 11.5422C202.235 11.3864 201.955 11.3085 201.602 11.3085C201.352 11.3085 201.139 11.4072 200.963 11.6045C200.786 11.8018 200.641 12.0562 200.527 12.3677C200.413 12.6792 200.319 13.0271 200.246 13.4113C200.174 13.7955 200.122 14.1798 200.091 14.564C200.059 14.9378 200.039 15.2909 200.028 15.6231C200.018 15.9451 200.013 16.1995 200.013 16.3864C200.013 16.6667 200.023 17.0146 200.044 17.43C200.075 17.835 200.137 18.2296 200.231 18.6138C200.324 18.9876 200.464 19.3095 200.651 19.5795C200.849 19.8495 201.113 19.9845 201.446 19.9845C201.82 19.9845 202.121 19.8547 202.349 19.5951C202.578 19.3355 202.749 19.0136 202.863 18.6293C202.988 18.2451 203.071 17.8453 203.112 17.43C203.154 17.0042 203.175 16.6252 203.175 16.2929Z" fill="#82A374"/>
</svg>
