<svg width="75" height="75" viewBox="0 0 75 75" fill="none" xmlns="http://www.w3.org/2000/svg">
<path fill-rule="evenodd" clip-rule="evenodd" d="M39.3413 10.1891V17.5809H46.733L39.3413 10.1891Z" fill="white"/>
<path fill-rule="evenodd" clip-rule="evenodd" d="M5.38281 9.09976V65.9001H27.6494C26.6495 64.9206 26.0278 63.556 26.0278 62.0489V57.2436H12.8189C12.3935 57.2436 12.048 56.8985 12.048 56.4729C12.048 56.0473 12.3933 55.7022 12.8187 55.7022H26.0277V47.9354H12.8189C12.3935 47.9354 12.048 47.5917 12.048 47.1647C12.048 46.7392 12.3933 46.394 12.8187 46.394H26.0277V43.5465C26.0277 41.361 27.334 39.475 29.207 38.6288H12.8189C12.3935 38.6288 12.048 38.2836 12.048 37.8581C12.048 37.4325 12.3933 37.0872 12.8187 37.0872H38.6812V36.4636C38.6812 34.0536 41.079 32.0931 44.027 32.0931H47.822L47.8222 19.1224H38.5701C38.1447 19.1224 37.7993 18.7772 37.7993 18.3516V9.09961H5.38281V9.09976ZM16.9003 18.2822H32.7577C33.1832 18.2822 33.5283 18.6275 33.5283 19.0531C33.5286 19.4785 33.183 19.8238 32.7577 19.8238H16.9005C16.4748 19.8238 16.1296 19.4787 16.1296 19.0531C16.1298 18.6275 16.4748 18.2822 16.9003 18.2822ZM12.8189 27.7792H40.3862C40.812 27.7792 41.157 28.1245 41.157 28.5499C41.157 28.9754 40.8117 29.3206 40.3862 29.3206H12.8189C12.3935 29.3206 12.048 28.9754 12.048 28.5499C12.0482 28.1243 12.3935 27.7792 12.8189 27.7792Z" fill="white"/>
<path fill-rule="evenodd" clip-rule="evenodd" d="M51.988 47.9674L51.9882 52.7969C51.9882 53.2236 51.6426 53.5677 51.2175 53.5676H45.9689C45.5435 53.5676 45.1982 53.2236 45.1982 52.7969V47.9674H27.5693V56.4727V62.0487C27.5693 64.1723 29.2956 65.8999 31.4193 65.8999H65.7669C67.8905 65.8999 69.6167 64.1723 69.6167 62.0487L69.6168 47.9673H51.988V47.9674ZM35.5247 58.3329H61.6617C62.0871 58.3329 62.4322 58.6768 62.4322 59.1038C62.4325 59.5292 62.0869 59.8745 61.6617 59.8745H35.5248C35.0991 59.8745 34.7538 59.5294 34.7538 59.1038C34.7541 58.6767 35.0991 58.3329 35.5247 58.3329Z" fill="white"/>
<path fill-rule="evenodd" clip-rule="evenodd" d="M50.4464 45.2405H46.7397V52.0265H50.4464V47.2171V47.1973V47.1773V45.2405Z" fill="white"/>
<path fill-rule="evenodd" clip-rule="evenodd" d="M65.767 39.6954H44.3914H44.3887H44.3859H39.4547H39.4521H39.4495H31.4193C29.2957 39.6954 27.5693 41.423 27.5693 43.5466V46.4263H45.1982V44.4699C45.1982 44.0444 45.5435 43.6992 45.9689 43.6992H51.2175C51.6429 43.6992 51.988 44.0445 51.988 44.4699V46.4264H69.617V43.5468C69.617 41.4229 67.8906 39.6954 65.767 39.6954Z" fill="white"/>
<path fill-rule="evenodd" clip-rule="evenodd" d="M51.4034 34.7268C52.5973 34.7268 53.5685 35.7183 53.5685 36.9375L53.5687 38.1539H56.9634L56.9636 36.4638C56.9636 34.9303 55.2212 33.635 53.1591 33.635H48.5966H48.5932H48.5899H44.0278C41.9657 33.635 40.2231 34.9305 40.2231 36.4638L40.2233 38.1539H43.6182L43.6184 36.9375C43.6184 35.7184 44.5896 34.7268 45.7833 34.7268H51.4034Z" fill="white"/>
</svg>
