<svg width="60" height="60" viewBox="0 0 60 60" fill="none" xmlns="http://www.w3.org/2000/svg">
<path d="M44.6982 59.6749C44.5179 59.6749 44.3449 59.6033 44.2174 59.4758C44.0899 59.3483 44.0182 59.1753 44.0182 58.9949C44.0236 58.0475 44.3493 57.1296 44.9424 56.3907C45.5354 55.6518 46.361 55.1352 47.2849 54.925L47.5549 54.8633L48.1066 46.6083L47.4949 46.9916C45.441 48.2352 43.079 48.8768 40.6782 48.8433C37.911 48.8296 35.1943 48.101 32.7916 46.7283L32.1949 46.3899L32.7616 54.8649L33.0316 54.9266C33.9555 55.1369 34.7811 55.6535 35.3741 56.3924C35.9672 57.1313 36.2929 58.0491 36.2982 58.9966C36.2982 59.0859 36.2807 59.1743 36.2465 59.2568C36.2123 59.3393 36.1622 59.4143 36.0991 59.4775C36.0359 59.5406 35.961 59.5907 35.8785 59.6249C35.796 59.659 35.7075 59.6766 35.6182 59.6766H23.7366C23.5562 59.6766 23.3833 59.605 23.2557 59.4775C23.1282 59.3499 23.0566 59.177 23.0566 58.9966C23.0619 58.0491 23.3876 57.1313 23.9807 56.3924C24.5738 55.6535 25.3994 55.1369 26.3232 54.9266L26.5932 54.8649L27.1499 46.485L26.5449 46.8466C24.3155 48.1515 21.7789 48.8393 19.1957 48.8393C16.6126 48.8393 14.0759 48.1515 11.8466 46.8466L11.2416 46.485L11.7982 54.8649L12.0682 54.9266C12.9921 55.1369 13.8177 55.6535 14.4108 56.3924C15.0039 57.1313 15.3296 58.0491 15.3349 58.9966C15.3349 59.177 15.2633 59.3499 15.1357 59.4775C15.0082 59.605 14.8353 59.6766 14.6549 59.6766H2.77491C2.59456 59.6766 2.4216 59.605 2.29408 59.4775C2.16655 59.3499 2.09491 59.177 2.09491 58.9966C2.10025 58.0491 2.42594 57.1313 3.01902 56.3924C3.6121 55.6535 4.43769 55.1369 5.36158 54.9266L5.63158 54.8649L6.21324 46.1433L5.67324 46.3499C4.37665 46.8657 2.99529 47.1353 1.59991 47.145C1.27324 47.145 0.946576 47.1283 0.614909 47.0966C0.436087 47.0789 0.271548 46.9911 0.157247 46.8525C0.0429465 46.7138 -0.0118223 46.5355 0.00490896 46.3566C0.0233028 46.1888 0.102743 46.0336 0.228121 45.9205C0.353499 45.8074 0.516069 45.7443 0.684909 45.7433H0.746576C1.02158 45.77 1.30324 45.7833 1.58658 45.7833C2.90005 45.7694 4.19818 45.4993 5.40824 44.9883L5.92658 44.7799L5.52991 44.3866C4.88387 43.7478 4.44511 42.9292 4.27074 42.0375C4.09637 41.1458 4.19447 40.2223 4.55226 39.3872C4.91006 38.552 5.51098 37.8439 6.27682 37.355C7.04265 36.8661 7.93792 36.6191 8.84609 36.6461C9.75426 36.6731 10.6333 36.9729 11.3687 37.5064C12.1041 38.0399 12.6619 38.7825 12.9695 39.6374C13.277 40.4923 13.3201 41.4201 13.0931 42.2998C12.866 43.1796 12.3794 43.9706 11.6966 44.57L11.3482 44.8766L11.7266 45.1466C13.9175 46.6749 16.5245 47.4944 19.1957 47.4944C21.867 47.4944 24.474 46.6749 26.6649 45.1466L27.0432 44.8766L26.6949 44.57C26.0061 43.9654 25.5174 43.1658 25.2935 42.2771C25.0697 41.3884 25.1212 40.4526 25.4414 39.5939C25.7615 38.7352 26.3351 37.9941 27.0861 37.4689C27.8371 36.9436 28.7301 36.6591 29.6465 36.653C30.5629 36.6469 31.4596 36.9195 32.2175 37.4347C32.9755 37.9499 33.5589 38.6833 33.8904 39.5377C34.222 40.3921 34.286 41.327 34.074 42.2186C33.8619 43.1102 33.3839 43.9163 32.7032 44.53L32.3466 44.8566L32.7516 45.1183C35.1182 46.6463 37.8696 47.4721 40.6866 47.5C43.2181 47.5484 45.6902 46.7305 47.6932 45.1816L48.0366 44.9033L47.7016 44.6166C47.0105 44.0265 46.5134 43.2419 46.275 42.365C46.0366 41.4882 46.0681 40.5598 46.3652 39.7011C46.6624 38.8424 47.2115 38.0932 47.9409 37.5512C48.6702 37.0092 49.546 36.6997 50.454 36.663C51.3619 36.6262 52.2599 36.864 53.0306 37.3453C53.8014 37.8265 54.4092 38.529 54.7748 39.3609C55.1404 40.1928 55.2467 41.1156 55.0799 42.0088C54.9132 42.9021 54.481 43.7243 53.8399 44.3683L53.4466 44.7649L53.9649 44.9716C55.2342 45.5232 56.5966 45.8292 57.9799 45.8733C58.4021 45.8732 58.8234 45.8336 59.2382 45.7549C59.4097 45.7337 59.5828 45.7785 59.7225 45.8802C59.8621 45.982 59.9578 46.1331 59.99 46.3028C60.0223 46.4726 59.9887 46.6482 59.8961 46.7941C59.8035 46.94 59.6589 47.0452 59.4916 47.0883C58.9887 47.1824 58.4782 47.2293 57.9666 47.2283C56.491 47.1956 55.0345 46.8881 53.6716 46.3216L53.1266 46.1133L53.7099 54.8666L53.9799 54.9283C54.9038 55.1385 55.7294 55.6551 56.3225 56.394C56.9155 57.133 57.2412 58.0508 57.2466 58.9983C57.2466 59.1786 57.1749 59.3516 57.0474 59.4791C56.9199 59.6066 56.7469 59.6783 56.5666 59.6783L44.6982 59.6749ZM48.1916 56.1816C47.6595 56.1834 47.1387 56.3351 46.6889 56.6193C46.2391 56.9034 45.8784 57.3086 45.6482 57.7883L45.3949 58.3149H55.8732L55.6199 57.7883C55.3902 57.3096 55.0306 56.9051 54.5821 56.621C54.1335 56.3369 53.6142 56.1847 53.0832 56.1816H48.1916ZM27.2316 56.1816C26.6995 56.1834 26.1787 56.3351 25.7289 56.6193C25.2791 56.9034 24.9184 57.3086 24.6882 57.7883L24.4349 58.3149H34.9132L34.6599 57.7883C34.4302 57.3096 34.0706 56.9051 33.6221 56.621C33.1735 56.3369 32.6542 56.1847 32.1232 56.1816H27.2316ZM6.27158 56.1816C5.73952 56.1834 5.21873 56.3351 4.7689 56.6193C4.31908 56.9034 3.95841 57.3086 3.72824 57.7883L3.47491 58.3149H13.9532L13.6999 57.7883C13.4701 57.3093 13.1102 56.9047 12.6614 56.6206C12.2125 56.3365 11.6928 56.1844 11.1616 56.1816H6.27158ZM48.9199 54.8233H52.3599L51.7432 45.5766L51.3449 45.64C50.879 45.7213 50.4025 45.7213 49.9366 45.64L49.5382 45.5766L48.9199 54.8233ZM27.9599 54.8233H31.3999L30.7832 45.5766L30.3849 45.64C30.1519 45.6791 29.9162 45.6997 29.6799 45.7016C29.4437 45.6995 29.2079 45.6789 28.9749 45.64L28.5766 45.5766L27.9599 54.8233ZM6.99991 54.8233H10.4349L9.81824 45.5766L9.41991 45.64C9.18581 45.6793 8.94895 45.6999 8.71158 45.7016C8.47533 45.6995 8.23961 45.6789 8.00658 45.64L7.61158 45.5766L6.99991 54.8233ZM50.6332 38.0166C50.0076 38.0166 49.396 38.2021 48.8758 38.5497C48.3556 38.8973 47.9501 39.3914 47.7107 39.9694C47.4713 40.5474 47.4086 41.1835 47.5307 41.7971C47.6527 42.4107 47.954 42.9744 48.3964 43.4168C48.8388 43.8592 49.4025 44.1604 50.0161 44.2825C50.6297 44.4046 51.2658 44.3419 51.8438 44.1025C52.4218 43.8631 52.9159 43.4576 53.2635 42.9374C53.611 42.4172 53.7966 41.8056 53.7966 41.18C53.7957 40.3413 53.4621 39.5372 52.8691 38.9441C52.276 38.3511 51.4719 38.0175 50.6332 38.0166ZM29.6732 38.0166C29.0476 38.0166 28.436 38.2021 27.9158 38.5497C27.3956 38.8973 26.9901 39.3914 26.7507 39.9694C26.5113 40.5474 26.4486 41.1835 26.5707 41.7971C26.6927 42.4107 26.994 42.9744 27.4364 43.4168C27.8788 43.8592 28.4425 44.1604 29.0561 44.2825C29.6697 44.4046 30.3058 44.3419 30.8838 44.1025C31.4618 43.8631 31.9559 43.4576 32.3035 42.9374C32.6511 42.4172 32.8366 41.8056 32.8366 41.18C32.8357 40.3413 32.5021 39.5372 31.9091 38.9441C31.316 38.3511 30.5119 38.0175 29.6732 38.0166ZM8.71158 38.0166C8.08593 38.0166 7.47433 38.2021 6.95412 38.5497C6.43391 38.8973 6.02846 39.3914 5.78904 39.9694C5.54961 40.5474 5.48697 41.1835 5.60902 41.7971C5.73108 42.4107 6.03236 42.9744 6.47476 43.4168C6.91716 43.8592 7.48081 44.1604 8.09444 44.2825C8.70807 44.4046 9.34411 44.3419 9.92213 44.1025C10.5002 43.8631 10.9942 43.4576 11.3418 42.9374C11.6894 42.4172 11.8749 41.8056 11.8749 41.18C11.874 40.3413 11.5405 39.5372 10.9474 38.9441C10.3544 38.3511 9.55027 38.0175 8.71158 38.0166ZM6.96991 32.4266C6.78956 32.4266 6.6166 32.355 6.48908 32.2275C6.36155 32.0999 6.28991 31.927 6.28991 31.7466V1.00328C6.29035 0.823226 6.36219 0.650693 6.48966 0.523529C6.61714 0.396364 6.78985 0.324951 6.96991 0.324951H52.3832C52.5636 0.324951 52.7365 0.396594 52.8641 0.524119C52.9916 0.651643 53.0632 0.824604 53.0632 1.00495V31.7466C53.0632 31.927 52.9916 32.0999 52.8641 32.2275C52.7365 32.355 52.5636 32.4266 52.3832 32.4266H6.96991ZM8.60324 31.07H50.7416L47.2116 27.5333H12.1399L8.60324 31.07ZM48.1716 6.17662V26.5733L51.7032 30.1049V2.64328L48.1716 6.17662ZM7.64658 30.1066L11.1782 26.575V6.17662L7.64658 2.64328V30.1066ZM28.6266 16.3549C26.4699 16.3549 16.5232 21.3416 12.8732 23.2616L12.8282 23.2783L12.7832 23.2933L12.5399 23.38V26.1716H46.8132V18.1583L46.6266 18.05C44.8939 17.0495 43.0547 16.2462 41.1432 15.655L41.0649 15.6333L40.9866 15.6466C39.5627 16.154 38.1858 16.7847 36.8716 17.5316L36.6532 17.6399L36.0082 17.9666L36.6532 18.2933C38.3896 19.2255 40.2077 19.9965 42.0849 20.5966C42.2581 20.6462 42.4045 20.7626 42.492 20.9201C42.5795 21.0776 42.6009 21.2633 42.5516 21.4366C42.5019 21.6098 42.3856 21.7562 42.2281 21.8437C42.0706 21.9312 41.8848 21.9526 41.7116 21.9033C39.2417 21.0831 36.8559 20.0289 34.5866 18.755C32.1916 17.5133 29.9399 16.34 28.6249 16.34M12.5366 21.8933L13.0816 21.615C16.0732 20.06 26.0382 14.9866 28.6316 14.9866C30.1216 14.9866 32.1916 15.9933 34.3632 17.1116L34.5282 17.1983L34.6966 17.115C35.2282 16.85 35.7599 16.5766 36.2566 16.325C39.0399 14.9016 40.3382 14.2783 41.0916 14.2783C41.1865 14.2777 41.2811 14.2889 41.3732 14.3116C43.0745 14.7993 44.7176 15.471 46.2732 16.315L46.8182 16.5983V6.57495H12.5382L12.5366 21.8933ZM12.1399 5.21495H47.2116L50.7416 1.68328H8.60324L12.1399 5.21495ZM19.5432 15.655C18.8563 15.655 18.1847 15.4512 17.6136 15.0696C17.0424 14.6879 16.5972 14.1455 16.3343 13.5108C16.0714 12.8761 16.0026 12.1778 16.1366 11.504C16.2707 10.8302 16.6015 10.2114 17.0872 9.7256C17.573 9.23985 18.1919 8.90904 18.8656 8.77502C19.5394 8.641 20.2378 8.70979 20.8724 8.97268C21.5071 9.23556 22.0496 9.68075 22.4312 10.2519C22.8129 10.8231 23.0166 11.4947 23.0166 12.1816C23.0153 13.1024 22.6489 13.9851 21.9978 14.6362C21.3467 15.2873 20.464 15.6536 19.5432 15.655ZM19.5432 10.0666C19.1246 10.0666 18.7154 10.1908 18.3673 10.4233C18.0192 10.6559 17.7479 10.9865 17.5877 11.3733C17.4275 11.76 17.3856 12.1856 17.4672 12.5962C17.5489 13.0068 17.7505 13.384 18.0465 13.68C18.3426 13.976 18.7197 14.1776 19.1303 14.2593C19.5409 14.341 19.9665 14.299 20.3533 14.1388C20.74 13.9786 21.0706 13.7073 21.3032 13.3592C21.5358 13.0112 21.6599 12.6019 21.6599 12.1833C21.6599 11.6219 21.4369 11.0835 21.04 10.6866C20.643 10.2896 20.1046 10.0666 19.5432 10.0666Z" fill="white"/>
</svg>
