<svg width="60" height="60" viewBox="0 0 60 60" fill="none" xmlns="http://www.w3.org/2000/svg">
<path d="M41.8526 18.036C40.3401 16.6043 38.5633 15.459 36.6141 14.6591C34.5963 13.8265 32.4289 13.3843 30.2347 13.3574C27.9324 13.3223 25.6464 13.7361 23.5136 14.5741C21.4755 15.3698 19.6202 16.5462 18.0542 18.036C15.0612 20.8477 13.3439 24.69 13.2783 28.7217C13.2126 32.7534 14.8039 36.646 17.7038 39.5472C19.4906 41.3511 20.4847 43.753 20.4775 46.2492C20.4848 46.8997 20.7589 47.5208 21.2397 47.9763C21.7206 48.4319 22.3688 48.6847 23.0424 48.6794H36.9593C37.6335 48.6847 38.2823 48.4314 38.7632 47.9751C39.2441 47.5189 39.5178 46.8969 39.5242 46.2459C39.5325 43.7334 40.5418 41.3205 42.3428 39.5072C45.1513 36.6687 46.7217 32.8958 46.7286 28.9699C46.7292 26.9025 46.2811 24.8579 45.4134 22.9679C44.5644 21.119 43.3556 19.4447 41.8526 18.036ZM40.6478 37.9621C38.4365 40.1933 37.1991 43.1608 37.1923 46.2492C37.1842 46.3012 37.156 46.3483 37.1135 46.3811C37.0709 46.4139 37.0171 46.4299 36.9628 46.4259H23.0441C22.9898 46.4299 22.936 46.4139 22.8934 46.3811C22.8509 46.3483 22.8227 46.3012 22.8146 46.2492C22.8203 43.1765 21.5951 40.2207 19.3953 38.0004C16.9172 35.5261 15.557 32.2034 15.6133 28.7616C15.6696 25.3198 17.1378 22.0402 19.6956 19.6428C22.4426 17.0299 26.1512 15.5768 30.0069 15.6025H30.2123C37.9069 15.7025 44.4054 21.8229 44.4019 28.9683C44.394 32.3188 43.0517 35.5379 40.653 37.9588M38.53 21.3112C39.6068 22.2997 40.4666 23.4873 41.0582 24.8033C41.6498 26.1194 41.961 27.537 41.9734 28.9716C41.9734 29.1193 41.9433 29.2655 41.8847 29.4019C41.8261 29.5383 41.7403 29.6622 41.6321 29.7666C41.5239 29.8709 41.3954 29.9536 41.2541 30.01C41.1127 30.0663 40.9613 30.0952 40.8084 30.095C40.6556 30.095 40.5043 30.0659 40.3632 30.0095C40.222 29.953 40.0938 29.8703 39.9857 29.766C39.7676 29.5553 39.645 29.2696 39.645 28.9716C39.6309 27.8368 39.3805 26.7164 38.9087 25.6769C38.437 24.6375 37.7535 23.7004 36.8989 22.9213C36.0147 22.0851 34.9762 21.4163 33.8369 20.9495C32.667 20.4667 31.4103 20.2102 30.1381 20.1945C29.9851 20.1924 29.834 20.1612 29.6935 20.1028C29.553 20.0443 29.4257 19.9597 29.3191 19.8537C29.2124 19.7478 29.1284 19.6226 29.0718 19.4853C29.0153 19.348 28.9873 19.2013 28.9894 19.0536C28.9916 18.9058 29.0238 18.7599 29.0844 18.6242C29.1449 18.4885 29.2325 18.3657 29.3422 18.2627C29.452 18.1597 29.5816 18.0785 29.7238 18.0239C29.866 17.9693 30.0179 17.9423 30.1709 17.9443C31.7469 17.963 33.3039 18.2801 34.7535 18.8777C36.1604 19.4535 37.4432 20.279 38.5352 21.3112M38.7527 51.2228C38.7529 51.3711 38.7227 51.5179 38.6639 51.6548C38.6052 51.7917 38.5189 51.9161 38.4101 52.0207C38.3013 52.1252 38.1722 52.208 38.0301 52.2642C37.8881 52.3203 37.7359 52.3488 37.5824 52.3479H22.4176C22.1086 52.3479 21.8122 52.2294 21.5938 52.0184C21.3753 51.8074 21.2525 51.5212 21.2525 51.2228C21.2525 50.9245 21.3753 50.6383 21.5938 50.4273C21.8122 50.2163 22.1086 50.0978 22.4176 50.0978H37.5824C37.891 50.0978 38.1869 50.2161 38.405 50.4268C38.6232 50.6375 38.7458 50.9232 38.7458 51.2212M37.6187 54.8931C37.6187 55.191 37.4961 55.4767 37.2779 55.6874C37.0598 55.8981 36.7639 56.0164 36.4553 56.0164H23.5464C23.2374 56.0164 22.9411 55.8979 22.7226 55.6869C22.5041 55.4759 22.3813 55.1898 22.3813 54.8914C22.3813 54.593 22.5041 54.3068 22.7226 54.0958C22.9411 53.8849 23.2374 53.7663 23.5464 53.7663H36.4553C36.7639 53.7663 37.0598 53.8847 37.2779 54.0954C37.4961 54.306 37.6187 54.5918 37.6187 54.8897M34.3116 57.8015C34.2689 58.2879 34.1337 58.7625 33.9129 59.2016C33.6523 59.6933 33.2881 60 32.8894 60H27.4248C26.724 60 26.132 59.0483 26.0025 57.7999C25.996 57.734 26.0039 57.6676 26.0256 57.6049C26.0473 57.5422 26.0823 57.4845 26.1285 57.4357C26.1747 57.3868 26.231 57.3479 26.2937 57.3213C26.3564 57.2948 26.4242 57.2812 26.4927 57.2815H33.8249C33.8934 57.2812 33.9612 57.2948 34.0239 57.3213C34.0866 57.3479 34.1429 57.3868 34.1891 57.4357C34.2352 57.4845 34.2703 57.5422 34.292 57.6049C34.3137 57.6676 34.3216 57.734 34.3151 57.7999M28.8349 9.32718V1.12506C28.8349 0.826677 28.9577 0.540513 29.1762 0.329523C29.3947 0.118533 29.691 0 30 0C30.309 0 30.6053 0.118533 30.8238 0.329523C31.0423 0.540513 31.1651 0.826677 31.1651 1.12506V9.32718C31.1651 9.62557 31.0423 9.91173 30.8238 10.1227C30.6053 10.3337 30.309 10.4522 30 10.4522C29.691 10.4522 29.3947 10.3337 29.1762 10.1227C28.9577 9.91173 28.8349 9.62557 28.8349 9.32718ZM43.5596 15.8775C43.4511 15.7732 43.365 15.6491 43.3063 15.5126C43.2476 15.376 43.2173 15.2296 43.2173 15.0817C43.2173 14.9338 43.2476 14.7874 43.3063 14.6508C43.365 14.5142 43.4511 14.3902 43.5596 14.2858L49.5627 8.4888C49.6709 8.38396 49.7993 8.30071 49.9407 8.2438C50.0822 8.18689 50.2338 8.15744 50.3871 8.15713C50.5403 8.15682 50.6921 8.18566 50.8338 8.24199C50.9754 8.29833 51.1042 8.38106 51.2128 8.48547C51.3214 8.58988 51.4076 8.71391 51.4665 8.85049C51.5255 8.98708 51.556 9.13353 51.5563 9.28149C51.5566 9.42945 51.5267 9.57603 51.4684 9.71285C51.4101 9.84967 51.3244 9.97405 51.2163 10.0789L45.2132 15.8759C45.1051 15.9807 44.9766 16.0638 44.8352 16.1205C44.6938 16.1772 44.5421 16.2064 44.389 16.2064C44.2358 16.2064 44.0842 16.1772 43.9428 16.1205C43.8013 16.0638 43.6729 15.9807 43.5648 15.8759M60 28.9716C60 29.1194 59.9698 29.2658 59.9111 29.4023C59.8524 29.5388 59.7664 29.6628 59.658 29.7672C59.5497 29.8715 59.421 29.9542 59.2795 30.0105C59.1379 30.0667 58.9863 30.0954 58.8332 30.095H50.3412C50.0322 30.095 49.7358 29.9765 49.5173 29.7655C49.2989 29.5545 49.1761 29.2683 49.1761 28.9699C49.1761 28.6716 49.2989 28.3854 49.5173 28.1744C49.7358 27.9634 50.0322 27.8449 50.3412 27.8449H58.8332C59.1417 27.8449 59.4376 27.9632 59.6558 28.1739C59.874 28.3846 59.9965 28.6703 59.9965 28.9683M8.78718 10.0789C8.56837 9.86759 8.44544 9.58101 8.44544 9.28218C8.44544 8.98336 8.56837 8.69677 8.78718 8.48547C9.00599 8.27417 9.30277 8.15546 9.61222 8.15546C9.92167 8.15546 10.2184 8.27417 10.4373 8.48547L16.4404 14.2825C16.6589 14.4935 16.7817 14.7798 16.7817 15.0783C16.7817 15.3768 16.6589 15.6631 16.4404 15.8742C16.2218 16.0853 15.9253 16.2039 15.6162 16.2039C15.3071 16.2039 15.0106 16.0853 14.792 15.8742L8.78718 10.0789ZM10.8239 28.9716C10.8239 29.2696 10.7013 29.5553 10.4832 29.766C10.265 29.9767 9.96909 30.095 9.66055 30.095H1.16507C0.856071 30.095 0.559732 29.9765 0.34124 29.7655C0.122748 29.5545 0 29.2683 0 28.9699C0 28.6716 0.122748 28.3854 0.34124 28.1744C0.559732 27.9634 0.856071 27.8449 1.16507 27.8449H9.66055C9.96909 27.8449 10.265 27.9632 10.4832 28.1739C10.7013 28.3846 10.8239 28.6703 10.8239 28.9683" fill="white"/>
</svg>
