<svg width="58" height="60" viewBox="0 0 58 60" fill="none" xmlns="http://www.w3.org/2000/svg">
<path d="M9.42332 9.42335C9.33479 9.33449 9.26462 9.22906 9.21684 9.11308C9.16905 8.99711 9.14457 8.87285 9.1448 8.74741C9.14527 8.49408 9.24636 8.25132 9.42582 8.07252C9.60528 7.89372 9.84842 7.79353 10.1018 7.794C10.2272 7.79423 10.3514 7.81917 10.4672 7.86738C10.583 7.9156 10.6881 7.98616 10.7767 8.07502L14.035 11.3517C14.1681 11.4855 14.2585 11.6558 14.2949 11.841C14.3312 12.0262 14.3119 12.218 14.2393 12.3923C14.1667 12.5665 14.0442 12.7153 13.8871 12.8199C13.73 12.9245 13.5454 12.9802 13.3567 12.98C13.2314 12.9799 13.1074 12.9549 12.9918 12.9066C12.8762 12.8582 12.7714 12.7874 12.6833 12.6983L9.42332 9.42335ZM44.705 13.0567C44.83 13.0571 44.9539 13.0327 45.0695 12.9849C45.1851 12.9371 45.29 12.8669 45.3783 12.7783L48.6583 9.52002C48.8382 9.34144 48.9398 9.09871 48.9408 8.84522C48.9417 8.59173 48.8419 8.34826 48.6633 8.16835C48.4847 7.98844 48.242 7.88685 47.9885 7.88591C47.735 7.88497 47.4916 7.98477 47.3117 8.16335L44.0317 11.4217C43.8989 11.5552 43.8085 11.725 43.772 11.9098C43.7355 12.0945 43.7544 12.2859 43.8264 12.46C43.8983 12.634 44.0201 12.7828 44.1765 12.8878C44.3328 12.9928 44.5167 13.0492 44.705 13.05M29.0483 6.52835C29.301 6.52835 29.5434 6.42819 29.7224 6.24982C29.9014 6.07144 30.0024 5.82939 30.0033 5.57668L30.015 0.951683C30.015 0.69818 29.9143 0.45506 29.735 0.275807C29.5558 0.0965532 29.3127 -0.00415039 29.0592 -0.00415039C28.8057 -0.00415039 28.5625 0.0965532 28.3833 0.275807C28.204 0.45506 28.1033 0.69818 28.1033 0.951683L28.0917 5.57168C28.0912 5.6971 28.1155 5.82137 28.1631 5.9374C28.2107 6.05343 28.2806 6.15896 28.369 6.24795C28.4574 6.33694 28.5624 6.40765 28.6781 6.45605C28.7938 6.50444 28.9179 6.52958 29.0433 6.53002M2.20499 28.6283L6.82999 28.64C7.08349 28.64 7.32661 28.5393 7.50586 28.3601C7.68512 28.1808 7.78582 27.9377 7.78582 27.6842C7.78582 27.4307 7.68512 27.1876 7.50586 27.0083C7.32661 26.8291 7.08349 26.7283 6.82999 26.7283L2.20499 26.7167C1.95148 26.7167 1.70836 26.8174 1.52911 26.9966C1.34986 27.1759 1.24915 27.419 1.24915 27.6725C1.24915 27.926 1.34986 28.1691 1.52911 28.3484C1.70836 28.5276 1.95148 28.6283 2.20499 28.6283ZM51.16 28.745L55.785 28.7567C56.0385 28.7567 56.2816 28.656 56.4609 28.4767C56.6401 28.2975 56.7408 28.0544 56.7408 27.8008C56.7408 27.5473 56.6401 27.3042 56.4609 27.125C56.2816 26.9457 56.0385 26.845 55.785 26.845L51.16 26.8333C50.9065 26.8333 50.6634 26.9341 50.4841 27.1133C50.3049 27.2926 50.2042 27.5357 50.2042 27.7892C50.2042 28.0427 50.3049 28.2858 50.4841 28.4651C50.6634 28.6443 50.9065 28.745 51.16 28.745ZM21.5167 16.9817C21.5167 15.5006 21.9558 14.0528 22.7787 12.8214C23.6015 11.5899 24.771 10.6301 26.1393 10.0634C27.5076 9.49659 29.0133 9.3483 30.4659 9.63724C31.9185 9.92618 33.2528 10.6394 34.3 11.6866C35.3473 12.7339 36.0605 14.0682 36.3494 15.5208C36.6384 16.9734 36.4901 18.479 35.9233 19.8473C35.3565 21.2157 34.3967 22.3852 33.1653 23.208C31.9338 24.0308 30.486 24.47 29.005 24.47C27.0192 24.4691 25.1151 23.6799 23.7109 22.2758C22.3068 20.8716 21.5175 18.9674 21.5167 16.9817ZM23.3867 16.9817C23.3867 18.0926 23.7161 19.1785 24.3332 20.1021C24.9504 21.0258 25.8276 21.7457 26.8539 22.1708C27.8802 22.5959 29.0096 22.7071 30.0991 22.4904C31.1886 22.2737 32.1894 21.7388 32.9749 20.9533C33.7604 20.1678 34.2953 19.167 34.5121 18.0774C34.7288 16.9879 34.6176 15.8586 34.1924 14.8323C33.7673 13.806 33.0474 12.9288 32.1238 12.3116C31.2001 11.6944 30.1142 11.365 29.0033 11.365C27.5144 11.3672 26.087 11.9597 25.0342 13.0125C23.9813 14.0654 23.3889 15.4927 23.3867 16.9817ZM49.0317 35.9517C49.0317 37.4327 48.5925 38.8805 47.7696 40.112C46.9468 41.3434 45.7773 42.3032 44.409 42.87C43.0407 43.4368 41.535 43.5851 40.0824 43.2961C38.6298 43.0072 37.2955 42.294 36.2483 41.2467C35.201 40.1995 34.4878 38.8652 34.1989 37.4126C33.9099 35.96 34.0582 34.4543 34.625 33.086C35.1918 31.7177 36.1516 30.5482 37.383 29.7254C38.6145 28.9025 40.0623 28.4633 41.5433 28.4633C43.5291 28.4642 45.4333 29.2535 46.8374 30.6576C48.2415 32.0617 49.0308 33.9659 49.0317 35.9517ZM47.1633 35.9517C47.1633 34.8408 46.8339 33.7549 46.2167 32.8312C45.5996 31.9076 44.7224 31.1877 43.6961 30.7626C42.6697 30.3374 41.5404 30.2262 40.4509 30.4429C39.3614 30.6597 38.3606 31.1946 37.5751 31.9801C36.7896 32.7656 36.2546 33.7664 36.0379 34.8559C35.8212 35.9455 35.9324 37.0748 36.3575 38.1011C36.7826 39.1274 37.5025 40.0046 38.4262 40.6218C39.3499 41.2389 40.4358 41.5683 41.5467 41.5683C43.0356 41.5661 44.463 40.9737 45.5158 39.9208C46.5687 38.868 47.1611 37.4406 47.1633 35.9517ZM9.00665 35.9517C9.00665 34.4706 9.44584 33.0228 10.2687 31.7914C11.0915 30.5599 12.261 29.6001 13.6293 29.0334C14.9976 28.4666 16.5033 28.3183 17.9559 28.6072C19.4085 28.8962 20.7428 29.6094 21.79 30.6566C22.8373 31.7039 23.5505 33.0382 23.8394 34.4908C24.1284 35.9434 23.9801 37.449 23.4133 38.8173C22.8465 40.1857 21.8867 41.3552 20.6553 42.178C19.4238 43.0008 17.976 43.44 16.495 43.44C14.5092 43.4391 12.6051 42.6499 11.2009 41.2458C9.79677 39.8416 9.00754 37.9374 9.00665 35.9517ZM10.875 35.9517C10.875 37.0626 11.2044 38.1485 11.8216 39.0721C12.4387 39.9958 13.3159 40.7157 14.3422 41.1408C15.3686 41.5659 16.4979 41.6771 17.5874 41.4604C18.6769 41.2437 19.6777 40.7088 20.4632 39.9233C21.2487 39.1378 21.7837 38.137 22.0004 37.0474C22.2171 35.9579 22.1059 34.8286 21.6808 33.8023C21.2557 32.776 20.5358 31.8988 19.6121 31.2816C18.6884 30.6644 17.6025 30.335 16.4917 30.335C15.0027 30.3372 13.5754 30.9297 12.5225 31.9825C11.4697 33.0354 10.8772 34.4627 10.875 35.9517ZM57.5883 36.4167C57.5883 35.4785 57.2156 34.5787 56.5522 33.9153C55.8888 33.2519 54.989 32.8792 54.0508 32.8792C53.1126 32.8792 52.2128 33.2519 51.5494 33.9153C50.886 34.5787 50.5133 35.4785 50.5133 36.4167C50.5133 40 48.1333 45.31 43.0217 45.3333H40.0167C34.9 45.3117 32.515 40 32.515 36.4167C32.515 35.4785 32.1423 34.5787 31.4789 33.9153C30.8155 33.2519 29.9157 32.8792 28.9775 32.8792C28.0393 32.8792 27.1395 33.2519 26.4761 33.9153C25.8127 34.5787 25.44 35.4785 25.44 36.4167C25.44 36.59 25.44 36.78 25.4517 37.0067C25.3016 38.9662 24.6148 40.8466 23.4667 42.4417C22.8484 43.3252 22.0275 44.0478 21.0726 44.5489C20.1177 45.0499 19.0567 45.3149 17.9783 45.3217H14.97C9.85832 45.3 7.47832 39.9883 7.47832 36.405C7.47832 35.4668 7.10562 34.567 6.44221 33.9036C5.7788 33.2402 4.87902 32.8675 3.94082 32.8675C3.00262 32.8675 2.10284 33.2402 1.43943 33.9036C0.77602 34.567 0.40332 35.4668 0.40332 36.405C0.421765 39.0578 0.944964 41.6829 1.94499 44.14C2.47813 45.4576 3.18857 46.6962 4.05665 47.8217C4.93523 48.9638 6.02426 49.9272 7.26499 50.66C7.31074 50.6864 7.3587 50.7087 7.40832 50.7267C7.92866 51.0385 8.31694 51.53 8.49999 52.1083C8.87102 53.0362 9.12899 54.0054 9.26832 54.995C9.47714 56.3409 9.59131 57.6998 9.60999 59.0617C9.60999 59.3066 9.70727 59.5414 9.88042 59.7146C10.0536 59.8877 10.2884 59.985 10.5333 59.985C10.7782 59.985 11.0131 59.8877 11.1862 59.7146C11.3594 59.5414 11.4567 59.3066 11.4567 59.0617C11.4398 57.6043 11.3184 56.15 11.0933 54.71C10.9301 53.5673 10.629 52.4486 10.1967 51.3783C9.84256 50.3554 9.10188 49.5118 8.13332 49.0284C4.08999 46.64 2.24832 40.8083 2.24832 36.4C2.2412 36.1733 2.27972 35.9474 2.36157 35.7359C2.44342 35.5243 2.56695 35.3314 2.72482 35.1685C2.88268 35.0056 3.07167 34.876 3.28056 34.7876C3.48945 34.6991 3.71398 34.6536 3.94082 34.6536C4.16766 34.6536 4.39219 34.6991 4.60108 34.7876C4.80997 34.876 4.99896 35.0056 5.15682 35.1685C5.31469 35.3314 5.43822 35.5243 5.52007 35.7359C5.60192 35.9474 5.64044 36.1733 5.63332 36.4C5.64504 37.5411 5.81901 38.6746 6.14999 39.7667C6.51087 40.9971 7.05895 42.1646 7.77499 43.2283C8.5273 44.3581 9.51911 45.3084 10.68 46.0117C11.981 46.7759 13.4645 47.1739 14.9733 47.1633H17.9833C19.4904 47.1729 20.9721 46.775 22.2717 46.0117C23.4325 45.3083 24.4243 44.358 25.1767 43.2283C25.5359 42.7005 25.8514 42.1442 26.12 41.565C26.3471 42.4459 26.6344 43.3102 26.98 44.1517C27.2466 44.7998 27.5527 45.431 27.8967 46.0417C27.103 47.2553 26.0499 48.2777 24.8133 49.035C23.8449 49.5186 23.1042 50.3621 22.75 51.385C22.3177 52.4553 22.0166 53.574 21.8533 54.7167C21.6283 56.1567 21.5068 57.611 21.49 59.0683C21.49 59.3132 21.5873 59.5481 21.7604 59.7212C21.9336 59.8944 22.1684 59.9917 22.4133 59.9917C22.6582 59.9917 22.8931 59.8944 23.0662 59.7212C23.2394 59.5481 23.3367 59.3132 23.3367 59.0683C23.3551 57.7043 23.4693 56.3431 23.6783 54.995C23.8177 54.0055 24.0757 53.0363 24.4467 52.1083C24.6331 51.5331 25.0199 51.044 25.5367 50.73C25.5869 50.7121 25.6354 50.6898 25.6817 50.6633C26.923 49.9308 28.0126 48.9673 28.8917 47.825L28.985 47.7034L29.0867 47.835C29.9657 48.9773 31.0553 49.9408 32.2967 50.6733C32.3424 50.6997 32.3903 50.722 32.44 50.74C32.9589 51.0513 33.3487 51.5387 33.5383 52.1133C33.9093 53.0413 34.1673 54.0104 34.3067 55C34.5163 56.3469 34.6305 57.707 34.6483 59.07C34.6483 59.3149 34.7456 59.5497 34.9188 59.7229C35.0919 59.8961 35.3268 59.9934 35.5717 59.9934C35.8165 59.9934 36.0514 59.8961 36.2245 59.7229C36.3977 59.5497 36.495 59.3149 36.495 59.07C36.4765 57.6125 36.3534 56.1582 36.1266 54.7183C35.9634 53.5757 35.6623 52.457 35.23 51.3867C34.8756 50.3639 34.135 49.5204 33.1667 49.0367C29.1233 46.6483 27.2817 40.8167 27.2817 36.4083C27.2955 35.9687 27.4798 35.5516 27.7957 35.2455C28.1116 34.9393 28.5343 34.7681 28.9742 34.7681C29.4141 34.7681 29.8367 34.9393 30.1526 35.2455C30.4685 35.5516 30.6529 35.9687 30.6667 36.4083C30.6785 37.5494 30.8524 38.6829 31.1833 39.775C31.5443 41.0054 32.0924 42.1729 32.8083 43.2367C33.5606 44.3664 34.5524 45.3167 35.7133 46.02C37.0138 46.7839 38.4967 47.1819 40.005 47.1717H43.0233C44.5303 47.1818 46.012 46.7844 47.3117 46.0217C48.4726 45.3184 49.4644 44.3681 50.2167 43.2383C50.9339 42.1749 51.4831 41.0073 51.845 39.7767C52.1759 38.6846 52.3499 37.5511 52.3617 36.41C52.3755 35.9703 52.5598 35.5533 52.8757 35.2471C53.1916 34.941 53.6143 34.7698 54.0542 34.7698C54.4941 34.7698 54.9167 34.941 55.2326 35.2471C55.5485 35.5533 55.7329 35.9703 55.7467 36.41C55.7467 40.82 53.9 46.6517 49.8617 49.04C48.8932 49.5236 48.1526 50.3671 47.7983 51.39C47.366 52.4603 47.0649 53.579 46.9016 54.7217C46.6766 56.1617 46.5552 57.616 46.5383 59.0733C46.5383 59.3182 46.6356 59.5531 46.8088 59.7262C46.9819 59.8994 47.2168 59.9967 47.4617 59.9967C47.7065 59.9967 47.9414 59.8994 48.1145 59.7262C48.2877 59.5531 48.385 59.3182 48.385 59.0733C48.4033 57.7092 48.5175 56.3481 48.7267 55C48.8649 54.0106 49.1218 53.0414 49.4916 52.1133C49.679 51.5396 50.0641 51.0511 50.5783 50.735C50.6286 50.716 50.6772 50.6926 50.7233 50.665C51.9649 49.9336 53.0551 48.9713 53.935 47.83C54.0433 47.695 54.1516 47.55 54.26 47.395L54.4867 47.0817C55.4941 45.6401 56.2492 44.0379 56.72 42.3433C57.2491 40.5696 57.541 38.7337 57.5883 36.8833V36.8767C57.5883 36.7133 57.595 36.555 57.595 36.41M12.985 17.5283C12.985 17.68 12.985 17.8367 12.9917 17.9917C13.0392 19.8453 13.3312 21.6845 13.86 23.4617C14.2423 24.7751 14.7817 26.0376 15.4667 27.2217L15.475 27.235L15.5017 27.2783L15.63 27.495H15.6883C15.8492 27.6297 16.0505 27.7065 16.2602 27.7133C16.4699 27.7201 16.6758 27.6565 16.8451 27.5325C17.0143 27.4085 17.1371 27.2314 17.1939 27.0295C17.2507 26.8275 17.2382 26.6123 17.1583 26.4183C17.146 26.3884 17.1315 26.3595 17.115 26.3317C15.6311 23.6369 14.8472 20.6129 14.835 17.5367C14.8488 17.097 15.0332 16.6799 15.349 16.3738C15.6649 16.0677 16.0876 15.8965 16.5275 15.8965C16.9674 15.8965 17.39 16.0677 17.7059 16.3738C18.0218 16.6799 18.2062 17.097 18.22 17.5367C18.2317 18.6777 18.4057 19.8113 18.7367 20.9033C19.0987 22.1339 19.6479 23.3015 20.365 24.365C21.116 25.4902 22.1048 26.4369 23.2617 27.1383C24.5622 27.9023 26.0451 28.3002 27.5533 28.29H30.435C31.9438 28.3005 33.4273 27.9026 34.7283 27.1383C35.8892 26.435 36.881 25.4848 37.6333 24.355C38.3505 23.2915 38.8997 22.124 39.2617 20.8933C39.5926 19.8013 39.7665 18.6677 39.7783 17.5267C39.7921 17.087 39.9765 16.6699 40.2924 16.3638C40.6083 16.0577 41.0309 15.8865 41.4708 15.8865C41.9107 15.8865 42.3334 16.0577 42.6493 16.3638C42.9652 16.6699 43.1495 17.087 43.1633 17.5267C43.1484 20.5947 42.3676 23.6103 40.8917 26.3C40.8833 26.315 40.875 26.33 40.8683 26.345C40.797 26.4789 40.7598 26.6283 40.76 26.78C40.7609 26.9568 40.8116 27.1297 40.9065 27.2789C41.0014 27.4281 41.1364 27.5474 41.2961 27.6232C41.4559 27.6989 41.6337 27.728 41.8093 27.7071C41.9848 27.6862 42.1509 27.6162 42.2883 27.505H42.3583L42.5167 27.2333C43.2048 26.0463 43.7471 24.7804 44.1317 23.4633C44.6599 21.6883 44.9518 19.8514 45 18C45 17.84 45.0067 17.6833 45.0067 17.535C45.0067 16.5968 44.634 15.697 43.9705 15.0336C43.3071 14.3702 42.4074 13.9975 41.4692 13.9975C40.5309 13.9975 39.6312 14.3702 38.9678 15.0336C38.3043 15.697 37.9316 16.5968 37.9316 17.535C37.9316 21.1183 35.5517 26.4283 30.44 26.4517H27.5483C22.4367 26.43 20.0567 21.1183 20.0567 17.535C20.0567 16.5968 19.684 15.697 19.0205 15.0336C18.3571 14.3702 17.4574 13.9975 16.5192 13.9975C15.581 13.9975 14.6812 14.3702 14.0178 15.0336C13.3544 15.697 12.9817 16.5968 12.9817 17.535" fill="white"/>
</svg>
