<svg width="37" height="37" viewBox="0 0 37 37" fill="none" xmlns="http://www.w3.org/2000/svg">
<path d="M28.1323 22.6519H26.1333C24.3974 20.9169 22.0878 19.8754 19.6383 19.7229C19.9583 18.9779 20.0233 17.8269 19.2693 16.0709C17.8173 12.6939 18.3423 10.6249 18.6173 9.91991C19.5161 9.94271 20.4088 9.76406 21.2296 9.39706C22.0505 9.03005 22.7788 8.48399 23.3613 7.79891C25.4463 5.16091 24.5273 1.09291 24.4873 0.923907C24.4527 0.773406 24.3624 0.641578 24.2346 0.554939C24.1067 0.468299 23.9509 0.433273 23.7983 0.456907C23.7263 0.467907 16.6563 1.63891 17.5973 9.20591C17.2806 9.91342 17.1056 10.6761 17.0823 11.4509C14.0793 7.68691 9.26225 9.09691 9.20225 9.11491C9.05442 9.15986 8.92906 9.25907 8.85134 9.39262C8.77363 9.52616 8.7493 9.68417 8.78325 9.83491C8.82125 10.0079 9.76025 14.0719 12.7873 15.5419C13.4975 15.8872 14.2776 16.0644 15.0673 16.0599C15.9847 16.0402 16.8899 15.8454 17.7343 15.4859C17.8523 15.8309 17.9853 16.1859 18.1453 16.5599C18.8333 18.1589 18.8043 19.3329 18.0653 19.7739C18.0501 19.7856 18.0357 19.7983 18.0223 19.8119C17.267 19.9244 16.5272 20.123 15.8173 20.4039C14.729 20.3161 13.6349 20.4727 12.615 20.8622C11.595 21.2516 10.675 21.8642 9.92225 22.6549H8.14525C7.98311 22.6544 7.82739 22.7182 7.71227 22.8324C7.59715 22.9466 7.53205 23.1018 7.53125 23.2639V26.3199C7.53099 26.4006 7.54669 26.4806 7.57745 26.5552C7.60822 26.6298 7.65343 26.6976 7.7105 26.7547C7.76757 26.8117 7.83536 26.8569 7.90997 26.8877C7.98459 26.9185 8.06455 26.9342 8.14525 26.9339H9.26425L10.3273 35.9089C10.3449 36.0578 10.4165 36.195 10.5286 36.2945C10.6407 36.394 10.7854 36.449 10.9353 36.4489H25.3433C25.493 36.4485 25.6375 36.3934 25.7495 36.294C25.8614 36.1945 25.9332 36.0576 25.9513 35.9089L27.0143 26.9339H28.1333C28.214 26.9342 28.2939 26.9185 28.3685 26.8877C28.4431 26.8569 28.5109 26.8117 28.568 26.7547C28.6251 26.6976 28.6703 26.6298 28.7011 26.5552C28.7318 26.4806 28.7475 26.4006 28.7473 26.3199V23.2639C28.7475 23.1832 28.7318 23.1032 28.7011 23.0286C28.6703 22.954 28.6251 22.8862 28.568 22.8292C28.5109 22.7721 28.4431 22.7269 28.3685 22.6961C28.2939 22.6653 28.214 22.6496 28.1333 22.6499M23.3933 1.79791C23.5463 2.92791 23.6903 5.40191 22.3943 7.03891C21.9442 7.5575 21.3876 7.97285 20.7623 8.25658C20.137 8.54031 19.4579 8.68573 18.7713 8.68291C18.3363 3.73891 21.9353 2.21091 23.3933 1.79791ZM13.3263 14.4349C11.4463 13.5239 10.5023 11.2369 10.1493 10.1479C11.6423 9.88591 15.5473 9.69991 17.3033 14.3399C16.6859 14.6407 16.0109 14.8047 15.3244 14.8207C14.6379 14.8368 13.956 14.7045 13.3253 14.4329M17.9173 22.1329C18.0682 22.1923 18.2365 22.1893 18.3852 22.1246C18.5339 22.0599 18.6508 21.9388 18.7103 21.7879C18.7697 21.637 18.7667 21.4687 18.702 21.32C18.6373 21.1712 18.5162 21.0543 18.3653 20.9949C20.4796 20.7479 22.6064 21.3416 24.2873 22.6479H11.7753C12.6705 22.0458 13.7047 21.6825 14.7798 21.5924C15.8549 21.5022 16.9343 21.6883 17.9173 22.1329ZM24.8003 35.2209H11.4773L10.4963 26.9339H25.7803L24.8003 35.2209ZM27.5183 25.7069H8.75625V23.8779H27.5183V25.7069Z" fill="white"/>
</svg>
